<?xml version="1.0" standalone="no"?><!DOCTYPE svg PUBLIC "-//W3C//DTD SVG 1.1//EN" "http://www.w3.org/Graphics/SVG/1.1/DTD/svg11.dtd"><svg class="icon" width="200px" height="200.00px" viewBox="0 0 1024 1024" version="1.1" xmlns="http://www.w3.org/2000/svg"><path fill="#FF0000" d="M661.9136 329.1136c12.1856 0 18.3296 6.144 18.3296 18.3296l0 182.8864c0 62.5664-20.992 116.224-62.8736 161.1776C575.488 736.3584 523.264 761.9584 460.8 768l0 219.4432 91.4432 0c12.1856 0 18.3296 6.144 18.3296 18.3296 0 12.288-6.144 18.3296-18.3296 18.3296L332.8 1024.1024c-12.1856 0-18.3296-6.0416-18.3296-18.3296 0-12.1856 6.144-18.3296 18.3296-18.3296l91.4432 0L424.2432 768c-62.464-6.0416-114.688-31.6416-156.5696-76.5952C225.792 646.5536 204.8 592.7936 204.8 530.3296L204.8 347.4432c0-12.1856 6.144-18.3296 18.3296-18.3296s18.3296 6.144 18.3296 18.3296l0 182.8864c0 56.4224 19.456 104.0384 58.2656 142.848 38.8096 38.8096 86.4256 58.2656 142.848 58.2656 56.4224 0 104.0384-19.456 142.848-58.2656 38.912-38.8096 58.2656-86.4256 58.2656-142.848L643.6864 347.4432C643.6864 335.2576 649.728 329.1136 661.9136 329.1136zM325.9392 646.8608c31.9488 31.9488 70.8608 48.0256 116.5312 48.0256 45.6704 0 84.5824-15.9744 116.5312-48.0256s48.0256-70.8608 48.0256-116.5312L607.0272 164.5568c0-45.6704-15.9744-84.5824-48.0256-116.5312C527.0528 15.9744 488.2432 0 442.4704 0 396.8 0 357.9904 15.9744 325.9392 48.0256 293.9904 79.9744 277.9136 118.8864 277.9136 164.5568l0 365.6704C277.9136 576 293.9904 614.8096 325.9392 646.8608zM352.256 74.24C377.344 49.152 407.4496 36.5568 442.4704 36.5568S507.6992 49.152 532.7872 74.24c25.1904 25.1904 37.6832 55.1936 37.6832 90.3168l0 365.6704c0 35.1232-12.5952 65.1264-37.6832 90.3168C507.6992 645.7344 477.5936 658.3296 442.4704 658.3296S377.344 645.7344 352.256 620.544C327.0656 595.456 314.4704 565.3504 314.4704 530.3296L314.4704 164.5568C314.4704 129.536 327.0656 99.4304 352.256 74.24z" /></svg>