<?xml version="1.0" standalone="no"?><!DOCTYPE svg PUBLIC "-//W3C//DTD SVG 1.1//EN" "http://www.w3.org/Graphics/SVG/1.1/DTD/svg11.dtd"><svg class="icon" width="200px" height="200.00px" viewBox="0 0 1024 1024" version="1.1" xmlns="http://www.w3.org/2000/svg"><path fill="#ff0000" d="M976 64H48a48 48 0 0 0-48 48v800a48 48 0 0 0 48 48h928a48 48 0 0 0 48-48V112a48 48 0 0 0-48-48zM384 112a48 48 0 1 1 0 96 48 48 0 0 1 0-96z m-144 0a48 48 0 1 1 0 96 48 48 0 0 1 0-96zM96 112a48 48 0 1 1 0 96 48 48 0 0 1 0-96z m880 800H48V256h928v656z"  /></svg>