<?xml version="1.0" standalone="no"?><!DOCTYPE svg PUBLIC "-//W3C//DTD SVG 1.1//EN" "http://www.w3.org/Graphics/SVG/1.1/DTD/svg11.dtd"><svg class="icon" width="200px" height="200.00px" viewBox="0 0 1024 1024" version="1.1" xmlns="http://www.w3.org/2000/svg"><path fill="#FF0000" d="M713.728 285.696l97.28-97.28-97.28-97.28c-8.192-8.192-8.192-20.48 0-28.672s20.48-8.192 28.672 0l97.28 97.28 97.28-97.28c8.192-8.192 20.48-8.192 28.672 0s8.192 20.48 0 28.672l-97.28 97.28 97.28 97.28c8.192 8.192 8.192 20.48 0 28.672-4.096 4.096-9.216 6.144-14.336 6.144s-10.24-2.048-14.336-6.144L839.68 217.088l-97.28 97.28c-4.096 4.096-9.216 6.144-14.336 6.144s-10.24-2.048-14.336-6.144c-8.192-8.192-8.192-20.48 0-28.672zM71.68 204.8h593.92c11.264 0 20.48-9.216 20.48-20.48s-9.216-20.48-20.48-20.48H71.68c-11.264 0-20.48 9.216-20.48 20.48s9.216 20.48 20.48 20.48z m0 256h880.64c11.264 0 20.48-9.216 20.48-20.48s-9.216-20.48-20.48-20.48H71.68c-11.264 0-20.48 9.216-20.48 20.48s9.216 20.48 20.48 20.48z m880.64 471.04H71.68c-11.264 0-20.48 9.216-20.48 20.48s9.216 20.48 20.48 20.48h880.64c11.264 0 20.48-9.216 20.48-20.48s-9.216-20.48-20.48-20.48z m0-256H71.68c-11.264 0-20.48 9.216-20.48 20.48s9.216 20.48 20.48 20.48h880.64c11.264 0 20.48-9.216 20.48-20.48s-9.216-20.48-20.48-20.48z" /></svg>