<?xml version="1.0" standalone="no"?><!DOCTYPE svg PUBLIC "-//W3C//DTD SVG 1.1//EN" "http://www.w3.org/Graphics/SVG/1.1/DTD/svg11.dtd"><svg class="icon" width="200px" height="200.00px" viewBox="0 0 1024 1024" version="1.1" xmlns="http://www.w3.org/2000/svg"><path fill="#FF0000" d="M393.408 144a16 16 0 0 1 11.264 4.672l118.72 118.656a16 16 0 0 0 11.264 4.672h345.344a64 64 0 0 1 64 64v480a64 64 0 0 1-64 64H144a64 64 0 0 1-64-64v-608a64 64 0 0 1 64-64h249.408z m-19.904 64H144v608h736v-480H501.568l-128.064-128zM512 432a32 32 0 0 1 32 32v79.936l80 0.064a32 32 0 0 1 0 64L544 607.936v80.064a32 32 0 0 1-64 0V607.936L400 608a32 32 0 0 1 0-64l80-0.064V464a32 32 0 0 1 32-32z"  /></svg>