<?xml version="1.0" standalone="no"?><!DOCTYPE svg PUBLIC "-//W3C//DTD SVG 1.1//EN" "http://www.w3.org/Graphics/SVG/1.1/DTD/svg11.dtd"><svg class="icon" width="200px" height="200.00px" viewBox="0 0 1024 1024" version="1.1" xmlns="http://www.w3.org/2000/svg"><path fill="#FF0000" d="M201.142857 475.428571q0 8-5.142857 13.142858L31.428571 653.142857q-5.142857 5.142857-13.142857 5.142857-7.428571 0-12.857143-5.428571T0 640V310.857143q0-7.428571 5.428571-12.857143T18.285714 292.571429q8 0 13.142857 5.142857l164.571429 164.571428q5.142857 5.142857 5.142857 13.142857z m822.857143 274.285715v109.714285q0 7.428571-5.428571 12.857143t-12.857143 5.428572H18.285714q-7.428571 0-12.857143-5.428572T0 859.428571v-109.714285q0-7.428571 5.428571-12.857143T18.285714 731.428571h987.428572q7.428571 0 12.857143 5.428572t5.428571 12.857143z m0-219.428572v109.714286q0 7.428571-5.428571 12.857143t-12.857143 5.428571H384q-7.428571 0-12.857143-5.428571T365.714286 640V530.285714q0-7.428571 5.428571-12.857143T384 512h621.714286q7.428571 0 12.857143 5.428571t5.428571 12.857143z m0-219.428571v109.714286q0 7.428571-5.428571 12.857142T1005.714286 438.857143H384q-7.428571 0-12.857143-5.428572T365.714286 420.571429V310.857143q0-7.428571 5.428571-12.857143T384 292.571429h621.714286q7.428571 0 12.857143 5.428571t5.428571 12.857143z m0-219.428572v109.714286q0 7.428571-5.428571 12.857143T1005.714286 219.428571H18.285714q-7.428571 0-12.857143-5.428571T0 201.142857V91.428571q0-7.428571 5.428571-12.857142T18.285714 73.142857h987.428572q7.428571 0 12.857143 5.428572t5.428571 12.857142z" /></svg>