<?xml version="1.0" standalone="no"?><!DOCTYPE svg PUBLIC "-//W3C//DTD SVG 1.1//EN" "http://www.w3.org/Graphics/SVG/1.1/DTD/svg11.dtd"><svg class="icon" width="200px" height="200.00px" viewBox="0 0 1024 1024" version="1.1" xmlns="http://www.w3.org/2000/svg"><path fill="#FF0000" d="M219.424 310.848V640q0 7.424-5.44 12.864t-12.864 5.44q-8 0-13.152-5.152L23.392 488.576q-5.152-5.152-5.152-13.152t5.152-13.152l164.576-164.576q5.152-5.152 13.152-5.152 7.424 0 12.864 5.44t5.44 12.864zM1024 749.728v109.728q0 7.424-5.44 12.864t-12.864 5.44H18.272q-7.424 0-12.864-5.44t-5.44-12.864v-109.728q0-7.424 5.44-12.864t12.864-5.44h987.424q7.424 0 12.864 5.44t5.44 12.864z m0-219.456V640q0 7.424-5.44 12.864t-12.864 5.44H383.968q-7.424 0-12.864-5.44t-5.44-12.864v-109.728q0-7.424 5.44-12.864t12.864-5.44h621.728q7.424 0 12.864 5.44t5.44 12.864z m0-219.424v109.728q0 7.424-5.44 12.864t-12.864 5.44H383.968q-7.424 0-12.864-5.44t-5.44-12.864V310.848q0-7.424 5.44-12.864t12.864-5.44h621.728q7.424 0 12.864 5.44t5.44 12.864z m0-219.424v109.728q0 7.424-5.44 12.864t-12.864 5.44H18.272q-7.424 0-12.864-5.44t-5.44-12.864V91.424q0-7.424 5.44-12.864t12.864-5.44h987.424q7.424 0 12.864 5.44t5.44 12.864z"  /></svg>