<?xml version="1.0" standalone="no"?><!DOCTYPE svg PUBLIC "-//W3C//DTD SVG 1.1//EN" "http://www.w3.org/Graphics/SVG/1.1/DTD/svg11.dtd"><svg class="icon" width="200px" height="162.93px" viewBox="0 0 1257 1024" version="1.1" xmlns="http://www.w3.org/2000/svg"><path fill="#FF0000" d="M745.47264 1024c11.264 0 23.552-4.096 31.744-13.312L1244.16064 543.744a45.12 45.12 0 0 0 0-63.488L777.21664 13.312a45.12 45.12 0 0 0-63.488 0c-18.432 17.408-18.432 46.08 0 64.512L1147.90464 512 713.72864 946.176c-18.432 18.432-18.432 47.104 0 64.512 8.192 9.216 20.48 13.312 31.744 13.312zM45.05664 557.056h1102.848A45.44 45.44 0 0 0 1192.96064 512a44.8 44.8 0 0 0-45.056-45.056H45.05664A44.8 44.8 0 0 0 0.00064 512c0 24.576 20.48 45.056 45.056 45.056z" /></svg>