<?xml version="1.0" standalone="no"?><!DOCTYPE svg PUBLIC "-//W3C//DTD SVG 1.1//EN" "http://www.w3.org/Graphics/SVG/1.1/DTD/svg11.dtd"><svg class="icon" width="200px" height="200.00px" viewBox="0 0 1024 1024" version="1.1" xmlns="http://www.w3.org/2000/svg"><path fill="#FF0000" d="M64 223.744v576.469333a48 48 0 0 0 76.714667 38.485334l-0.128 0.085333 355.413333-263.296v224.725333a48 48 0 0 0 76.714667 38.485334l-0.128 0.085333 389.12-288.213333a47.957333 47.957333 0 0 0 0.128-77.056l-0.128-0.085334-389.12-288.213333a48 48 0 0 0-76.544 38.570667v224.725333L140.586667 185.216a48 48 0 0 0-76.544 38.570667z m496 31.786667L906.24 512l-346.24 256.469333zM128 255.530667L474.24 512 128 768.469333z" /></svg>