<?xml version="1.0" standalone="no"?><!DOCTYPE svg PUBLIC "-//W3C//DTD SVG 1.1//EN" "http://www.w3.org/Graphics/SVG/1.1/DTD/svg11.dtd"><svg class="icon" width="200px" height="200.00px" viewBox="0 0 1024 1024" version="1.1" xmlns="http://www.w3.org/2000/svg"><path fill="#FF0000" d="M785.655172 494.344828a17.655172 17.655172 0 0 0-17.655172 17.655172v105.931034c0 136.297931-110.874483 247.172414-247.172414 247.172414s-247.172414-110.874483-247.172414-247.172414v-105.931034a17.655172 17.655172 0 1 0-35.310344 0v105.931034c0 149.804138 117.300966 272.401655 264.827586 281.582345V988.689655h-88.275862a17.655172 17.655172 0 1 0 0 35.310345h211.862069a17.655172 17.655172 0 1 0 0-35.310345h-88.275862v-89.176276c147.526621-9.18069 264.827586-131.795862 264.827586-281.582345v-105.931034a17.655172 17.655172 0 0 0-17.655173-17.655172z"  /><path fill="#FF0000" d="M520.827586 812.137931c107.078621 0 194.206897-87.128276 194.206897-194.206897V194.206897c0-107.078621-87.128276-194.206897-194.206897-194.206897s-194.206897 87.128276-194.206896 194.206897v423.724137c0 107.078621 87.128276 194.206897 194.206896 194.206897z m-158.896552-617.931034c0-87.622621 71.291586-158.896552 158.896552-158.896552s158.896552 71.273931 158.896552 158.896552v423.724137c0 87.622621-71.291586 158.896552-158.896552 158.896552s-158.896552-71.273931-158.896552-158.896552V194.206897zM921.723586 75.793655a17.637517 17.637517 0 0 0-24.964414 0l-158.896551 158.896552a17.637517 17.637517 0 1 0 24.964413 24.964414l158.896552-158.896552a17.637517 17.637517 0 0 0 0-24.964414z"  /><path fill="#FF0000" d="M656.896 365.585655a17.637517 17.637517 0 1 0-24.964414-24.964414l-247.172414 247.172414a17.637517 17.637517 0 1 0 24.964414 24.964414l247.172414-247.172414zM225.862621 746.690207l-123.586207 123.586207a17.637517 17.637517 0 1 0 24.964414 24.964414l123.586206-123.586207a17.637517 17.637517 0 1 0-24.964413-24.964414z"  /></svg>