<?xml version="1.0" standalone="no"?><!DOCTYPE svg PUBLIC "-//W3C//DTD SVG 1.1//EN" "http://www.w3.org/Graphics/SVG/1.1/DTD/svg11.dtd"><svg class="icon" width="200px" height="200.00px" viewBox="0 0 1024 1024" version="1.1" xmlns="http://www.w3.org/2000/svg"><path fill="#ff0000" d="M170.666667 42.666667c-47.36 0-85.333333 37.973333-85.333334 85.333333v170.666667c0 47.36 37.973333 85.333333 85.333334 85.333333H42.666667v85.333333h512V384h-128c47.36 0 85.333333-37.973333 85.333333-85.333333V128c0-47.36-37.973333-85.333333-85.333333-85.333333H170.666667m0 85.333333h256v170.666667H170.666667V128M128 554.666667v298.666666h298.666667v-85.333333H213.333333v-213.333333H128m469.333333 0c-47.36 0-85.333333 37.973333-85.333333 85.333333v170.666667c0 47.36 37.973333 85.333333 85.333333 85.333333h-128v85.333333h512v-85.333333h-128c47.36 0 85.333333-37.973333 85.333334-85.333333v-170.666667c0-47.36-37.973333-85.333333-85.333334-85.333333h-256m0 85.333333h256v170.666667h-256v-170.666667z"  /></svg>