<?xml version="1.0" standalone="no"?><!DOCTYPE svg PUBLIC "-//W3C//DTD SVG 1.1//EN" "http://www.w3.org/Graphics/SVG/1.1/DTD/svg11.dtd"><svg class="icon" width="200px" height="200.00px" viewBox="0 0 1024 1024" version="1.1" xmlns="http://www.w3.org/2000/svg"><path fill="#ff0000" d="M832 128a64 64 0 0 1 64 64v640a64 64 0 0 1-64 64H192a64 64 0 0 1-64-64V192a64 64 0 0 1 64-64z m0 64H192v640h640V192z m-192 64v402.752l105.344-105.408 45.312 45.312-149.12 149.056a38.4 38.4 0 0 1-65.088-20.928L576 720.576V256h64z m-160.448 22.016l0.448 6.208V748.8h-64V346.048L310.656 451.456l-45.312-45.312 149.12-149.056a38.4 38.4 0 0 1 65.088 20.928z"  /></svg>