<?xml version="1.0" standalone="no"?><!DOCTYPE svg PUBLIC "-//W3C//DTD SVG 1.1//EN" "http://www.w3.org/Graphics/SVG/1.1/DTD/svg11.dtd"><svg class="icon" width="200px" height="200.00px" viewBox="0 0 1024 1024" version="1.1" xmlns="http://www.w3.org/2000/svg"><path fill="#FF0000" d="M940.31 226.46l-384-160a32 32 0 0 0-24.62 0l-384 160A32 32 0 0 0 128 256v227.93a563.56 563.56 0 0 0 353.45 523.56C510 1018.91 529.29 1024 544 1024s34-5.09 62.55-16.51A563.56 563.56 0 0 0 960 483.93V256a32 32 0 0 0-19.69-29.54zM896 483.93c0 205.84-123 388-313.22 464.14C553.29 959.86 544.37 960 544 960s-9.29-0.14-38.78-11.93C315 872 192 689.77 192 483.93v-206.6l352-146.66 352 146.66z m-352-17.18l73.37-73.38a32 32 0 0 1 45.26 45.26L589.25 512l73.38 73.37a32 32 0 0 1-45.26 45.26L544 557.25l-73.37 73.38a32 32 0 0 1-45.26-45.26L498.75 512l-73.38-73.37a32 32 0 0 1 45.26-45.26z"  /></svg>