<?xml version="1.0" standalone="no"?><!DOCTYPE svg PUBLIC "-//W3C//DTD SVG 1.1//EN" "http://www.w3.org/Graphics/SVG/1.1/DTD/svg11.dtd"><svg class="icon" width="200px" height="200.00px" viewBox="0 0 1024 1024" version="1.1" xmlns="http://www.w3.org/2000/svg"><path fill="#FF0000" d="M512.213333 53.674667a251.733333 251.733333 0 0 1 95.488 18.688l237.696 97.28A135.381333 135.381333 0 0 1 924.586667 287.146667l-0.426667 187.392a504.874667 504.874667 0 0 1-108.330667 306.986666 527.616 527.616 0 0 1-273.536 185.002667 115.968 115.968 0 0 1-60.458666 0 527.701333 527.701333 0 0 1-273.664-185.045333A504.917333 504.917333 0 0 1 99.84 474.453333V287.146667A134.912 134.912 0 0 1 179.2 169.6l237.482667-97.237333a251.733333 251.733333 0 0 1 95.530666-18.688z m0 852.906666a50.730667 50.730667 0 0 0 13.354667-1.749333A457.301333 457.301333 0 0 0 860.16 474.453333l0.426667-187.392a71.296 71.296 0 0 0-39.381334-58.197333l-237.696-97.28a189.312 189.312 0 0 0-142.634666 0L203.264 228.906667A70.912 70.912 0 0 0 163.84 287.146667v187.306666a457.344 457.344 0 0 0 334.933333 430.421334 50.517333 50.517333 0 0 0 13.226667 1.706666z" /></svg>