<?xml version="1.0" standalone="no"?><!DOCTYPE svg PUBLIC "-//W3C//DTD SVG 1.1//EN" "http://www.w3.org/Graphics/SVG/1.1/DTD/svg11.dtd"><svg class="icon" width="200px" height="200.00px" viewBox="0 0 1024 1024" version="1.1" xmlns="http://www.w3.org/2000/svg"><path fill="#FF0000" d="M1017.6 352c-6.4-6.4-12.8-12.8-25.6-12.8H172.8c-12.8 0-25.6 12.8-32 25.6l-64 249.6V224h102.4l12.8-51.2 6.4-12.8c0-6.4 6.4-12.8 12.8-12.8h166.4c6.4 0 12.8 6.4 12.8 12.8l6.4 12.8 19.2 51.2H812.8V313.6h70.4v-128c0-19.2-12.8-32-32-32h-384l-12.8-51.2c-6.4-12.8-19.2-25.6-38.4-25.6H179.2c-19.2 0-32 12.8-38.4 25.6l-12.8 51.2H32c-12.8 0-32 12.8-32 32v665.6c0 19.2 19.2 44.8 44.8 44.8h492.8L512 819.2H96l102.4-396.8c0-6.4 6.4-6.4 12.8-6.4h716.8v6.4l-25.6 102.4c25.6 12.8 44.8 25.6 64 38.4l51.2-185.6c6.4-6.4 6.4-19.2 0-25.6z"  /><path fill="#FF0000" d="M960 729.6c-25.6-12.8-38.4-38.4-25.6-64 0-6.4 6.4-12.8 12.8-19.2 12.8-6.4 12.8-25.6 6.4-44.8l-38.4-51.2c0-6.4-6.4-6.4-12.8-6.4-12.8-6.4-19.2-6.4-32 0s-32 6.4-44.8 6.4c-12.8-6.4-19.2-25.6-25.6-38.4 0-12.8-12.8-19.2-19.2-25.6-6.4 0-6.4-6.4-12.8-6.4h-70.4c-19.2 0-32 19.2-32 32 0 0 0 12.8-6.4 19.2-12.8 25.6-38.4 32-64 25.6-6.4 0-12.8-6.4-19.2 0-12.8 0-19.2 6.4-25.6 12.8 0 0-12.8 25.6-25.6 38.4-6.4 12.8-12.8 38.4-12.8 44.8v25.6c0 6.4 6.4 12.8 12.8 12.8 25.6 12.8 32 38.4 25.6 64 0 6.4-6.4 12.8-12.8 19.2-12.8 12.8-19.2 32-6.4 44.8l38.4 51.2c0 6.4 6.4 6.4 12.8 6.4 12.8 6.4 19.2 6.4 32 0s32-6.4 44.8-6.4c12.8 6.4 19.2 25.6 25.6 38.4 0 12.8 12.8 19.2 19.2 25.6 6.4 0 6.4 6.4 12.8 6.4h70.4c19.2 0 32-19.2 32-32 0 0 0-12.8 6.4-19.2 12.8-25.6 38.4-32 64-25.6 6.4 6.4 12.8 6.4 25.6 0 6.4 0 12.8-6.4 19.2-12.8l25.6-38.4c6.4-19.2 12.8-44.8 19.2-44.8v-25.6c-6.4-6.4-12.8-6.4-19.2-12.8z m-38.4 64c-6.4 6.4-12.8 19.2-19.2 25.6-19.2-6.4-44.8-6.4-64 0-25.6 6.4-44.8 25.6-51.2 44.8-6.4 6.4-6.4 19.2-6.4 25.6h-44.8c0-6.4-6.4-12.8-6.4-19.2-12.8-19.2-25.6-32-38.4-44.8-12.8-6.4-32-6.4-57.6-6.4-6.4 0-12.8 0-19.2 6.4l-38.4-25.6c6.4-6.4 12.8-12.8 12.8-25.6 12.8-25.6 12.8-44.8 6.4-70.4-6.4-19.2-19.2-38.4-38.4-51.2 0-6.4 6.4-19.2 12.8-25.6 6.4-6.4 12.8-19.2 12.8-25.6 19.2 6.4 44.8 6.4 64 0 25.6-6.4 44.8-25.6 51.2-44.8 6.4-6.4 6.4-19.2 6.4-25.6h51.2c0 6.4 6.4 12.8 12.8 19.2 12.8 19.2 25.6 32 38.4 38.4s32 6.4 57.6 6.4c6.4 0 12.8 0 19.2-6.4l25.6 38.4c0-6.4-6.4 6.4-12.8 12.8-12.8 25.6-12.8 44.8-6.4 70.4 6.4 19.2 19.2 38.4 38.4 51.2 0 12.8-6.4 19.2-6.4 32z"  /><path fill="#FF0000" d="M780.8 627.2c-44.8-19.2-96 0-121.6 38.4-19.2 44.8 0 96 38.4 121.6 44.8 19.2 96 0 121.6-38.4 25.6-44.8 6.4-96-38.4-121.6 0 6.4 0 6.4 0 0z m0 102.4c-6.4 19.2-32 25.6-57.6 19.2-19.2-12.8-32-38.4-19.2-57.6 12.8-19.2 32-25.6 57.6-19.2 19.2 12.8 25.6 38.4 19.2 57.6z"  /></svg>
