<?xml version="1.0" standalone="no"?><!DOCTYPE svg PUBLIC "-//W3C//DTD SVG 1.1//EN" "http://www.w3.org/Graphics/SVG/1.1/DTD/svg11.dtd"><svg class="icon" width="200px" height="200.00px" viewBox="0 0 1024 1024" version="1.1" xmlns="http://www.w3.org/2000/svg"><path fill="#FF0000" d="M757.290667 675.626667l233.322666 233.322666-60.330666 60.330667L699.306667 738.325333A382.506667 382.506667 0 0 1 448 832c-212.074667 0-384-171.925333-384-384S235.925333 64 448 64s384 171.925333 384 384c0 85.205333-27.733333 163.925333-74.709333 227.626667zM746.666667 448c0-164.949333-133.717333-298.666667-298.666667-298.666667S149.333333 283.050667 149.333333 448s133.717333 298.666667 298.666667 298.666667 298.666667-133.717333 298.666667-298.666667z m-234.154667 170.666667h-70.144V396.458667h-79.872v-47.616c48.64-0.512 82.432-27.648 89.088-62.464h60.928V618.666667z" /></svg>