<?xml version="1.0" standalone="no"?><!DOCTYPE svg PUBLIC "-//W3C//DTD SVG 1.1//EN" "http://www.w3.org/Graphics/SVG/1.1/DTD/svg11.dtd"><svg class="icon" width="200px" height="200.00px" viewBox="0 0 1024 1024" version="1.1" xmlns="http://www.w3.org/2000/svg"><path fill="#ff0000" d="M512 64c247.424 0 448 200.576 448 448s-200.576 448-448 448S64 759.424 64 512 264.576 64 512 64z m0 64C299.936 128 128 299.936 128 512s171.936 384 384 384 384-171.936 384-384S724.064 128 512 128z m-4.48 525.632c12.096 0 22.464 3.456 30.528 11.52 8.064 7.488 12.096 17.28 12.096 29.376s-4.032 21.888-12.096 29.952a45.76 45.76 0 0 1-30.528 11.52c-12.096 0-21.888-4.032-29.376-12.096a38.4 38.4 0 0 1-12.672-29.376c0-12.096 4.032-21.888 12.672-29.376 7.488-8.064 17.28-11.52 29.376-11.52z m9.792-336.96c37.44 0 67.392 9.792 90.432 30.528 22.464 20.16 33.984 47.808 33.984 82.368 0 28.224-7.488 51.84-21.312 70.272-5.184 6.336-21.312 21.312-48.96 44.928-10.368 9.216-18.432 19.008-23.616 29.376-6.336 11.52-9.216 24.192-9.216 38.592v9.792h-61.632v-9.792c0-21.312 3.456-39.744 10.944-54.72 8.064-16.128 29.952-39.744 65.664-71.424l9.792-10.944c10.368-13.248 15.552-27.072 15.552-42.048 0-20.16-5.76-35.712-16.704-47.232-11.52-11.52-27.648-17.28-48.384-17.28-25.92 0-44.928 8.064-56.448 24.192-10.368 13.824-15.552 33.984-15.552 59.328H380.8c0-42.048 12.096-74.88 36.864-99.072 24.192-24.768 57.6-36.864 99.648-36.864z"  fill-opacity=".65" /></svg>