<?xml version="1.0" standalone="no"?><!DOCTYPE svg PUBLIC "-//W3C//DTD SVG 1.1//EN" "http://www.w3.org/Graphics/SVG/1.1/DTD/svg11.dtd"><svg class="icon" width="200px" height="200.00px" viewBox="0 0 1024 1024" version="1.1" xmlns="http://www.w3.org/2000/svg"><path fill="#ff0000" d="M139.636364 46.545455v651.636363a46.545455 46.545455 0 0 0 93.090909 0V46.545455a46.545455 46.545455 0 1 0-93.090909 0z"  /><path fill="#ff0000" d="M232.727273 977.454545v-186.181818a46.545455 46.545455 0 0 0-93.090909 0v186.181818a46.545455 46.545455 0 0 0 93.090909 0zM558.545455 977.454545V325.818182a46.545455 46.545455 0 1 0-93.09091 0v651.636363a46.545455 46.545455 0 0 0 93.09091 0z"  /><path fill="#ff0000" d="M465.454545 46.545455v186.181818a46.545455 46.545455 0 1 0 93.09091 0V46.545455a46.545455 46.545455 0 1 0-93.09091 0zM884.363636 977.454545v-372.363636a46.545455 46.545455 0 0 0-93.090909 0v372.363636a46.545455 46.545455 0 0 0 93.090909 0z"  /><path fill="#ff0000" d="M791.272727 46.545455v465.454545a46.545455 46.545455 0 0 0 93.090909 0V46.545455a46.545455 46.545455 0 0 0-93.090909 0zM93.090909 791.272727h186.181818a46.545455 46.545455 0 0 0 0-93.090909H93.090909a46.545455 46.545455 0 0 0 0 93.090909zM418.909091 325.818182h186.181818a46.545455 46.545455 0 0 0 0-93.090909H418.909091a46.545455 46.545455 0 1 0 0 93.090909z"  /><path fill="#ff0000" d="M744.727273 605.090909h186.181818a46.545455 46.545455 0 0 0 0-93.090909h-186.181818a46.545455 46.545455 0 0 0 0 93.090909z"  /></svg>