<?xml version="1.0" standalone="no"?><!DOCTYPE svg PUBLIC "-//W3C//DTD SVG 1.1//EN" "http://www.w3.org/Graphics/SVG/1.1/DTD/svg11.dtd"><svg class="icon" width="200px" height="199.61px" viewBox="0 0 1026 1024" version="1.1" xmlns="http://www.w3.org/2000/svg"><path fill="#FFFFFF" d="M514.402156 1.805876c-282.261871 0-511.097062 228.801118-511.097062 511.097062 0 282.261871 228.835191 511.097062 511.097062 511.097062s511.097062-228.835191 511.097062-511.097062C1025.499218 230.606994 796.664027 1.805876 514.402156 1.805876zM514.402156 989.926863c-263.453499 0-477.023924-213.570426-477.023924-477.023924s213.570426-477.023924 477.023924-477.023924 477.023924 213.570426 477.023924 477.023924S777.855655 989.926863 514.402156 989.926863zM494.230859 725.042292l34.073137 0 0 34.073137-34.073137 0 0-34.073137ZM494.230859 674.239244 528.303996 674.239244 536.106745 265.361595 486.42811 265.361595Z" /></svg>