<?xml version="1.0" standalone="no"?><!DOCTYPE svg PUBLIC "-//W3C//DTD SVG 1.1//EN" "http://www.w3.org/Graphics/SVG/1.1/DTD/svg11.dtd"><svg class="icon" width="200px" height="200.00px" viewBox="0 0 1024 1024" version="1.1" xmlns="http://www.w3.org/2000/svg"><path fill="#FFFFFF" d="M133.442524 289.513134h79.054126V141.604629c0-11.717086 10.294581-21.201736 23.285514-21.201736h552.193462c12.990933 0 23.284232 9.483368 23.284232 21.201736v147.908505h79.050281c12.441154 0 22.735734 9.483368 22.735735 21.45548v202.029062h56.838695c20.860847 0 38.446087 15.953845 38.446087 35.175607v319.988065c0 19.982995-17.589085 35.429351-38.446087 35.429351H53.868094c-21.112028 0-38.175683-15.446356-38.175683-35.429351V548.175846c0-19.223044 17.063655-35.175607 38.175683-35.175607h56.864326V310.963487c0-11.97083 9.995983-21.45548 22.710104-21.455479z m22.735735 223.484542h56.318391v-181.081071h-56.318391v181.081071z m102.058983 0h507.002649V162.806364H258.237242v350.191312z m553.022616 0h56.039017v-181.081071h-56.039017v181.081071z m120.473377 70.329427H92.319308v249.912383h120.177342v-77.809755c0-11.464623 10.294581-21.203017 23.285514-21.203017h552.193462c12.990933 0 23.284232 9.739675 23.284232 21.203017v77.809755h120.473377v-249.912383z m-673.495993 249.912383h507.002649v-56.608019H258.237242v56.608019z"  /></svg>