<?xml version="1.0" standalone="no"?><!DOCTYPE svg PUBLIC "-//W3C//DTD SVG 1.1//EN" "http://www.w3.org/Graphics/SVG/1.1/DTD/svg11.dtd"><svg class="icon" width="200px" height="200.00px" viewBox="0 0 1024 1024" version="1.1" xmlns="http://www.w3.org/2000/svg"><path fill="#FFFFFF" d="M812 152a30 30 0 0 0-30-30H182a30 30 0 0 0-30 30v720a30 30 0 0 0 30 30h270v60H182a90 90 0 0 1-90-90V152a90 90 0 0 1 90-90h600a90 90 0 0 1 90 90v360h-60V152zM272 692v-60h150v60H272z m0-420h420v60H272v-60z m420 240H272v-60h420v60z m240 183.21L665 962H542V839l266.79-267zM603.56 900.44l61.56-20.52 184.71-184.71-41.04-41.04L624.08 839z" /></svg>