<?xml version="1.0" standalone="no"?><!DOCTYPE svg PUBLIC "-//W3C//DTD SVG 1.1//EN" "http://www.w3.org/Graphics/SVG/1.1/DTD/svg11.dtd"><svg class="icon" width="200px" height="200.00px" viewBox="0 0 1024 1024" version="1.1" xmlns="http://www.w3.org/2000/svg"><path fill="#ffffff" d="M384 352h192c19.2 0 32-12.8 32-32s-12.8-32-32-32h-192c-19.2 0-32 12.8-32 32s12.8 32 32 32zM384 512h256c19.2 0 32-12.8 32-32s-12.8-32-32-32h-256c-19.2 0-32 12.8-32 32s12.8 32 32 32zM384 672h192c19.2 0 32-12.8 32-32s-12.8-32-32-32h-192c-19.2 0-32 12.8-32 32s12.8 32 32 32zM352 800c0 19.2 12.8 32 32 32h384c19.2 0 32-12.8 32-32s-12.8-32-32-32H384c-19.2 0-32 12.8-32 32zM982.4 361.6l-256-256c-6.4-6.4-12.8-9.6-22.4-9.6h-83.2L534.4 9.6c-6.4-6.4-12.8-9.6-22.4-9.6H128C73.6 0 32 41.6 32 96v640c0 54.4 41.6 96 96 96h96v96c0 54.4 41.6 96 96 96h576c54.4 0 96-41.6 96-96V384c0-9.6-3.2-16-9.6-22.4zM736 204.8l147.2 147.2H736V204.8zM224 768H128c-19.2 0-32-16-32-32V96c0-19.2 16-32 32-32h371.2l32 32H320C265.6 96 224 137.6 224 192v576z m704 160c0 19.2-16 32-32 32H320c-19.2 0-32-16-32-32V192c0-19.2 16-32 32-32h352v224c0 19.2 12.8 32 32 32h224v512z" /></svg>