<?xml version="1.0" standalone="no"?><!DOCTYPE svg PUBLIC "-//W3C//DTD SVG 1.1//EN" "http://www.w3.org/Graphics/SVG/1.1/DTD/svg11.dtd"><svg class="icon" width="200px" height="200.00px" viewBox="0 0 1024 1024" version="1.1" xmlns="http://www.w3.org/2000/svg"><path fill="#ffffff" d="M949.356 75.496c-9.376-9.366-19.218-18.012-29.244-25.696l-1.908-1.464a39.95 39.95 0 0 0-3.876-3.248C873.694 15.17 829.114 0 781.824 0c-73.786 0-150.538 37.67-221.96 108.934a41.02 41.02 0 0 0-2.01 2.16l-3.134 3.626-3.638 3.146c-0.74 0.64-1.456 1.306-2.146 1.998C477.67 191.24 440 267.994 440 341.824c0 31.554 7.372 62.984 21.906 93.418a40.06 40.06 0 0 0 2.556 4.558c3.022 4.65 14.092 21.5 25.904 37.264l-164.652 164.652c-15.622 15.622-15.622 40.95 0 56.57C333.524 706.096 343.762 710 354 710s20.474-3.904 28.286-11.714l96.16-96.16c4.14 7.154 8.222 14.68 11.618 21.444 9.248 19.472 13.938 39.188 13.938 58.604 0 51.862-29.222 108.69-84.536 164.418l-4.708 4.07a40.356 40.356 0 0 0-4.104 4.104l-4.052 4.69C350.83 914.77 293.996 944 242.174 944c-28.836 0-56.524-9.264-82.346-27.542-0.82-0.746-1.674-1.458-2.556-2.134l-4.708-3.612c-7.276-5.576-14.472-11.908-21.392-18.818-33.954-33.906-51.17-70.938-51.17-110.064 0-51.868 29.23-108.704 84.542-164.43l4.708-4.076a39.952 39.952 0 0 0 4.072-4.074l4.064-4.696c52.866-52.44 106.448-81.7 155.02-84.626 22.05-1.33 38.85-20.284 37.52-42.336-1.33-22.05-20.298-38.864-42.336-37.52-69.65 4.2-139.542 40.828-207.728 108.864-0.69 0.692-1.356 1.406-1.994 2.144l-3.152 3.64-3.648 3.158c-0.732 0.634-1.444 1.296-2.128 1.982C37.672 631.236 0.002 707.99 0.002 781.828c0 61.136 25.114 117.214 74.642 166.674 9.376 9.366 19.218 18.012 29.244 25.696l1.908 1.464c1.218 1.16 2.514 2.246 3.876 3.248 40.634 29.918 85.214 45.088 132.504 45.088 73.786 0 150.538-37.67 221.96-108.934a41.02 41.02 0 0 0 2.01-2.16l3.134-3.626 3.638-3.146c0.74-0.64 1.456-1.306 2.146-1.998C546.33 832.758 584 756.004 584 682.174c0-31.55-7.372-62.98-21.906-93.414-0.104-0.216-0.208-0.434-0.316-0.648-2.716-5.434-12.94-25.458-25.168-44.15l161.676-161.676c15.622-15.622 15.622-40.95 0-56.57-15.622-15.62-40.95-15.622-56.57 0l-94.08 94.08a739.44 739.44 0 0 1-14.616-21.33c-8.64-18.832-13.02-37.876-13.02-56.642 0-51.862 29.222-108.69 84.536-164.418l4.708-4.07a40.356 40.356 0 0 0 4.104-4.104l4.052-4.69C673.168 109.228 730.002 80 781.824 80c28.836 0 56.524 9.264 82.346 27.542 0.82 0.746 1.674 1.458 2.556 2.134l4.708 3.612c7.276 5.576 14.472 11.908 21.392 18.818 33.954 33.906 51.17 70.938 51.17 110.064 0 51.87-29.224 108.702-84.542 164.432l-4.708 4.074a39.952 39.952 0 0 0-4.072 4.074l-4.06 4.694c-51.42 50.972-105.69 79.538-157.024 82.632-22.05 1.33-38.85 20.284-37.52 42.336 1.282 21.232 18.898 37.594 39.89 37.594 0.808 0 1.626-0.026 2.446-0.074 71.456-4.308 143.976-41.264 209.728-106.868 0.69-0.692 1.356-1.406 1.994-2.144l3.152-3.642 3.648-3.156c0.732-0.634 1.444-1.296 2.128-1.982 71.27-71.376 108.94-148.13 108.94-221.968 0.002-61.138-25.112-117.216-74.64-166.676z" /></svg>
