<?xml version="1.0" standalone="no"?><!DOCTYPE svg PUBLIC "-//W3C//DTD SVG 1.1//EN" "http://www.w3.org/Graphics/SVG/1.1/DTD/svg11.dtd"><svg class="icon" width="200px" height="200.00px" viewBox="0 0 1024 1024" version="1.1" xmlns="http://www.w3.org/2000/svg"><path fill="#FFFFFF" d="M594 845V736c0-17.7-14.3-32-32-32s-32 14.3-32 32v108.9l-0.1 0.1H178.1l-0.1-0.1V179.1l0.1-0.1h351.8l0.1 0.1V288c0 17.7 14.3 32 32 32s32-14.3 32-32V179c0-35.2-28.8-64-64-64H178c-35.2 0-64 28.8-64 64v666c0 35.2 28.8 64 64 64h352c35.2 0 64-28.8 64-64zM897.8 535.4c6.5-6.1 10.2-14.5 10.2-23.4s-3.7-17.3-10.2-23.4l-159.5-148c-13-12.1-33.4-11.4-45.6 1.5-12.2 12.9-11.5 33.2 1.5 45.2L794 480H271.8c-17.6 0-31.8 14.3-31.8 32s14.2 32 31.8 32H794l-99.8 92.6c-13 12.1-13.7 32.3-1.5 45.2s32.6 13.6 45.6 1.5l159.5-147.9z" /></svg>