<?xml version="1.0" standalone="no"?><!DOCTYPE svg PUBLIC "-//W3C//DTD SVG 1.1//EN" "http://www.w3.org/Graphics/SVG/1.1/DTD/svg11.dtd"><svg class="icon" width="200px" height="200.00px" viewBox="0 0 1024 1024" version="1.1" xmlns="http://www.w3.org/2000/svg"><path fill="#FFFFFF" d="M864.981333 416c4.736 0 9.472 0.469333 14.122667 1.365333l6.912 1.706667 6.698667 2.304a74.666667 74.666667 0 0 1 43.733333 90.965333l-2.133333 6.058667-109.824 274.773333a96 96 0 0 1-81.877334 60.074667l-7.466666 0.298667H219.434667c-1.493333 0-2.986667 0-4.437334-0.085334L181.290667 853.333333a96.085333 96.085333 0 0 1-95.744-89.429333L85.333333 757.333333V267.008a96 96 0 0 1 89.258667-95.786667l6.570667-0.213333L350.037333 170.666667c19.712 0 38.869333 5.973333 54.954667 17.152l6.698667 5.12L512.853333 277.333333h201.770667a96 96 0 0 1 95.104 82.730667l0.682667 6.741333 0.213333 6.570667v42.624h54.314667z m-556.288 64a32 32 0 0 0-28.288 17.066667l-1.792 4.010666L189.312 746.666667a32 32 0 0 0 26.368 42.666666l519.68 0.256a32 32 0 0 0 8.448-1.152l3.84-1.365333a32 32 0 0 0 14.976-13.056l2.304-4.650667 108.714667-274.688a10.666667 10.666667 0 0 0-5.973334-13.866666l-1.92-0.554667-2.005333-0.170667H308.650667z m41.472-245.333333l-168.874666 0.341333a32 32 0 0 0-31.658667 27.648l-0.298667 4.352-0.042666 402.304 69.162666-190.08A96 96 0 0 1 301.226667 416.341333l7.509333-0.298666 437.930667-0.042667 0.042666-42.666667a32 32 0 0 0-27.648-31.658666L714.666667 341.333333h-224.938667l-119.04-99.242666a32 32 0 0 0-16.085333-7.125334l-4.437334-0.298666z" /></svg>