<?xml version="1.0" standalone="no"?><!DOCTYPE svg PUBLIC "-//W3C//DTD SVG 1.1//EN" "http://www.w3.org/Graphics/SVG/1.1/DTD/svg11.dtd"><svg class="icon" width="200px" height="200.00px" viewBox="0 0 1024 1024" version="1.1" xmlns="http://www.w3.org/2000/svg"><path fill="#FFFFFF" d="M256 853.333333V170.666667h248.149333c76.074667 0 130.517333 13.781333 175.445334 41.898666C724.48 240.64 746.666667 282.026667 746.666667 332.8c0 36.821333-16.298667 66.730667-43.093334 94.464-26.794667 27.733333-56.618667 46.805333-95.317333 57.6v1.92c48.512 6.016 87.253333 23.936 116.224 53.76 29.013333 29.866667 43.52 66.176 43.52 109.056 0 62.506667-22.357333 112.085333-67.029333 148.736-44.672 36.693333-105.216 54.997333-182.570667 54.997333H256zM409.770667 283.989333v161.834667h67.584c31.744 0 56.746667-7.68 75.008-23.082667 18.218667-15.36 27.349333-36.565333 27.349333-63.573333 0-50.133333-37.461333-75.178667-112.341333-75.178667h-57.6z m0 276.053334v180.010666h83.328c35.541333 0 63.36-8.277333 83.541333-24.746666 20.138667-16.512 30.208-39.082667 30.208-67.626667 0-27.306667-9.898667-48.725333-29.738667-64.256-19.84-15.573333-47.530667-23.338667-83.072-23.338667H409.770667z"  /></svg>