<?xml version="1.0" standalone="no"?><!DOCTYPE svg PUBLIC "-//W3C//DTD SVG 1.1//EN" "http://www.w3.org/Graphics/SVG/1.1/DTD/svg11.dtd"><svg class="icon" width="200px" height="200.00px" viewBox="0 0 1024 1024" version="1.1" xmlns="http://www.w3.org/2000/svg"><path fill="#FFFFFF" d="M610.34752 630.3616a32.00512 32.00512 0 0 1-6.6048-5.25568c-29.9392-31.06304-70.9888-48.89088-114.94656-48.89088-42.84928 0-82.944 16.93184-112.71424 46.61504-12.50816 12.47232-32.7424 12.42624-45.19168-0.10752-12.44928-12.5312-12.4032-32.80384 0.10752-45.27616 41.6256-41.50784 97.87648-65.26208 157.7984-65.26208 60.36224 0 116.9664 24.11264 158.62784 66.09664a208.3456 208.3456 0 0 0-37.07648 52.08064z m170.5856-189.9776c12.54656 12.43648 12.65664 32.70656 0.24576 45.27872-12.41088 12.5696-32.64512 12.67968-45.19168 0.24576-65.40032-64.81152-153.33888-101.7856-247.1936-101.7856-94.63296 0-183.2448 37.59616-248.7808 103.3728-12.4672 12.51072-32.70144 12.52864-45.19168 0.0384-12.4928-12.4928-12.50816-32.76288-0.04096-45.27616 77.40672-77.68832 182.2336-122.16576 294.016-122.16576 110.85312 0 214.88896 43.74016 292.13696 120.2944z m136.384-135.0272c12.50304 12.48 12.544 32.75264 0.08448 45.27872-12.4544 12.52608-32.6912 12.56192-45.19168 0.08448-101.18144-100.992-237.70112-158.68928-383.41376-158.68928-145.5616 0-281.94816 57.5744-383.104 158.37696-12.51328 12.4672-32.74752 12.416-45.19168-0.12032-12.44672-12.53632-12.39296-32.8064 0.12032-45.27616C173.63456 192.39168 326.1696 128 488.79616 128c162.79552 0 315.47904 64.52736 428.52096 177.3568zM488.79616 798.72c-34.41664 0-62.31552-27.95008-62.31552-62.43072 0-34.47808 27.89888-62.42816 62.31552-62.42816 34.41408 0 62.31296 27.95008 62.31296 62.42816 0 34.48064-27.89888 62.43072-62.31296 62.43072zM798.72 898.56c-96.1408 0-174.08-77.9392-174.08-174.08s77.9392-174.08 174.08-174.08 174.08 77.9392 174.08 174.08-77.9392 174.08-174.08 174.08z m-17.45152-159.80288c0.95232 9.94048 2.53952 17.344 4.7616 22.20544 2.21952 4.864 6.18496 7.296 11.89632 7.296 5.6064 0 9.6256-2.51136 12.0576-7.53664 2.432-5.02272 4.0192-12.2368 4.7616-21.6448l6.81984-79.04768c0.7424-7.2704 1.11104-14.43072 1.11104-21.48608 0-11.97056-1.536-21.13792-4.60032-27.49696-3.06944-6.35904-9.14944-9.54112-18.24512-9.54112-7.51104 0-13.56544 2.48576-18.16576 7.45728-4.60032 4.96896-6.90176 11.8912-6.90176 20.7616 0 6.52288 0.47616 17.26464 1.42848 32.2304l5.07648 76.8z m17.61024 105.50272c6.34624 0 11.89888-2.1376 16.65792-6.4128 4.7616-4.2752 7.13984-10.15552 7.13984-17.6384 0-6.62784-2.3552-12.26496-7.06048-16.91648-4.70528-4.64896-10.3936-6.97344-17.05472-6.97344-6.66368 0-12.29568 2.32448-16.896 6.97344-4.60032 4.65152-6.90176 10.2912-6.90176 16.91648 0 7.5904 2.4064 13.49632 7.2192 17.71776 4.8128 4.224 10.4448 6.33344 16.896 6.33344z"  /></svg>