<?xml version="1.0" standalone="no"?><!DOCTYPE svg PUBLIC "-//W3C//DTD SVG 1.1//EN" "http://www.w3.org/Graphics/SVG/1.1/DTD/svg11.dtd"><svg class="icon" width="200px" height="200.00px" viewBox="0 0 1024 1024" version="1.1" xmlns="http://www.w3.org/2000/svg"><path fill="#FFFFFF" d="M248.4 119.525c4.5 0 8 3.6 8 8v56c0 4.4-3.6 8-8 8H184v655.6h656v-655.5h-64.4c-4.4 0-8-3.6-8-8v-56c0-4.4 3.6-8.1 8-8.1H880c17.7 0 32 14.3 32 32v735.5c0 17.7-14.3 32-32 32H144c-17.7 0-32-14.3-32-32v-735.5c0-17.7 14.3-32 32-32zM541.156 105c4.5 0 8.3 3.7 8.3 8.3v326.9h79.2c7 0 11 8 6.6 13.5l-116.6 147.7c-3.4 4.3-9.8 4.3-13.2 0l-116.7-147.7c-4.3-5.4-0.4-13.5 6.6-13.5h79.2V113.3c0-4.6 3.7-8.3 8.3-8.3z" /></svg>