<?xml version="1.0" standalone="no"?><!DOCTYPE svg PUBLIC "-//W3C//DTD SVG 1.1//EN" "http://www.w3.org/Graphics/SVG/1.1/DTD/svg11.dtd"><svg class="icon" width="200px" height="159.25px" viewBox="0 0 1286 1024" version="1.1" xmlns="http://www.w3.org/2000/svg"><path fill="#ffffff" d="M1274.031902 332.63038c-15.881423 20.781546-45.357546 20.781546-63.513129 4.673964-602.237644-544.378503-1111.561423-23.118528-1134.240196 0.050257a44.880098 44.880098 0 0 1-31.750283 13.820859 44.880098 44.880098 0 0 1-31.750282-13.820859c-15.881423-16.107583-18.143018-45.998331 0-64.706748 4.535755-7.010945 590.967362-606.74827 1258.803828-4.673963 18.394307 16.06989 20.655902 46.211926 2.450062 64.65649z"  /><path fill="#ffffff" d="M1148.38773 852.633914c9.285104 9.410748 3.266748 30.506405-13.557006 47.543755-16.559902 16.786061-37.693252 22.879804-46.928098 13.732908l-53.700319-54.416491-53.700319 54.416491c-9.285104 9.410748-30.154601 3.304442-46.928098-13.732908-16.559902-16.786061-22.615951-38.133006-13.557007-47.543755L973.742331 798.217423l-53.700319-54.41649c-9.285104-9.410748-3.266748-30.506405 13.557006-47.543755 16.559902-16.786061 37.693252-22.879804 46.928099-13.732908l53.725447 54.378797 53.700319-54.41649c9.285104-9.410748 30.154601-3.304442 46.928099 13.732908 16.572466 16.81119 22.590822 38.170699 13.506748 47.581448l-53.650061 54.41649zM1034.503853 572.686135C911.535902 572.686135 811.66135 673.628663 811.66135 798.217423S911.535902 1024 1034.503853 1024s222.842503-100.942528 222.842503-225.531288-99.623264-225.782577-222.842503-225.782577zM635.495656 775.852761a90.124564 90.124564 0 1 1-63.739288 26.385276 90.664834 90.664834 0 0 1 63.739288-26.385276zM622.189939 534.289276c64.493153-2.801865 127.491141 15.253202 187.461104 53.398773a306.722552 306.722552 0 0 0-52.192589 75.260859c-43.158773-26.385276-86.581399-39.665865-130.996614-38.396859-112.677693 2.286724-196.243632 101.445104-196.243631 101.445104-15.806037 20.341791-44.917791 22.615951-63.236712 6.860172-20.329227-15.768344-22.615951-42.719018-6.772221-63.312098 4.74935-6.596319 108.644515-128.383215 261.980663-135.255951z m462.006184-81.342037c15.554748 12.200049 19.072785 32.290552 12.564417 49.327902a292.348859 292.348859 0 0 0-70.247657-8.669448 306.056638 306.056638 0 0 0-30.870773 1.520295c-407.300712-331.813693-729.992638 12.463902-743.072196 27.968392-9.033816 11.182331-22.615951 15.768344-33.923926 15.768344-9.033816 0-20.329227-4.573448-29.363043-11.182331-18.067632-15.768344-18.067632-45.005742-2.261595-63.312099 4.535755-4.573448 412.577767-442.380564 897.174773-11.421055z"  /></svg>