<?xml version="1.0" standalone="no"?><!DOCTYPE svg PUBLIC "-//W3C//DTD SVG 1.1//EN" "http://www.w3.org/Graphics/SVG/1.1/DTD/svg11.dtd"><svg class="icon" width="200px" height="200.00px" viewBox="0 0 1024 1024" version="1.1" xmlns="http://www.w3.org/2000/svg"><path fill="#FFFFFF" d="M512 69.818182c349.090909 0 372.363636 93.090909 372.363636 93.090909v309.527273a465.198545 465.198545 0 0 1-237.265454 405.643636L512 954.181818l-135.098182-76.101818A465.198545 465.198545 0 0 1 139.636364 472.436364V162.909091s0-93.090909 372.363636-93.090909m0-69.818182C346.624 0 226.513455 18.152727 154.949818 53.992727 75.962182 93.323636 69.818182 147.316364 69.818182 162.909091v309.527273a536.040727 536.040727 0 0 0 272.849454 466.618181l135.098182 75.869091a69.096727 69.096727 0 0 0 68.468364 0l135.098182-75.869091A536.040727 536.040727 0 0 0 954.181818 472.436364V162.909091a69.329455 69.329455 0 0 0-2.094545-16.989091C938.472727 91.461818 863.162182 0 512 0z m-23.272727 640a35.118545 35.118545 0 0 1-24.692364-10.24l-162.909091-162.909091a34.909091 34.909091 0 0 1 49.338182-49.338182l138.24 138.24 231.330909-231.330909a34.909091 34.909091 0 1 1 49.338182 49.338182l-256 256A35.118545 35.118545 0 0 1 488.727273 640z" /></svg>