<?xml version="1.0" standalone="no"?><!DOCTYPE svg PUBLIC "-//W3C//DTD SVG 1.1//EN" "http://www.w3.org/Graphics/SVG/1.1/DTD/svg11.dtd"><svg class="icon" width="200px" height="190.51px" viewBox="0 0 1075 1024" version="1.1" xmlns="http://www.w3.org/2000/svg"><path fill="#FFFFFF" d="M970.6496 0H104.5504A104.8576 104.8576 0 0 0 0 104.5504v610.1504C0 772.1472 47.0528 819.2 104.5504 819.2H512v153.6h-409.6v51.2h870.4v-51.2h-409.6v-153.6h407.4496a104.8576 104.8576 0 0 0 104.5504-104.5504V104.5504A104.8576 104.8576 0 0 0 970.6496 0zM1024 765.8496c0 0.9216-1.1776 2.1504-2.1504 2.1504H53.3504C52.3776 768 51.2 766.8224 51.2 765.8496V53.3504C51.2 52.3776 52.3776 51.2 53.3504 51.2h968.5504c0.9216 0 2.0992 1.1776 2.0992 2.1504v712.4992zM772.9152 216.0128l-64.5632 64.8192-62.976-11.4176-11.3152-62.976 64.5632-64.8192c-14.4896-14.4896-35.1744-21.1456-50.5344-20.3264s-48.3328 9.472-73.8304 36.5568c-24.6784 26.0608-50.6368 74.5984-27.648 128.5632 2.7648 6.5024 5.8368 15.104-3.328 24.2176-9.2672 9.1648-245.7088 231.7312-245.7088 231.7312-22.1696 19.0976-20.5824 54.3744-0.1024 74.9568 20.7872 20.48 55.8592 21.7088 74.9568-0.3584 0 0 220.7744-235.1616 231.6288-245.8112 9.728-9.472 18.3808-6.2976 24.2176-3.328 40.704 21.0432 98.6112 2.7648 128.6656-27.2896s35.5328-59.0848 36.4544-73.9328c1.024-14.6944-4.1472-34.2528-20.48-50.5856z m-423.4752 375.1424a18.5344 18.5344 0 0 1-25.9584 0 18.5344 18.5344 0 0 1 0-25.9584 18.5344 18.5344 0 0 1 25.9584 0 18.5344 18.5344 0 0 1 0 25.9584z" /></svg>