<?xml version="1.0" standalone="no"?><!DOCTYPE svg PUBLIC "-//W3C//DTD SVG 1.1//EN" "http://www.w3.org/Graphics/SVG/1.1/DTD/svg11.dtd"><svg class="icon" width="200px" height="185.34px" viewBox="0 0 1105 1024" version="1.1" xmlns="http://www.w3.org/2000/svg"><path fill="#FFFFFF" d="M1059.615 873.677H45.653A45.781 45.781 0 0 1 0 828.024V45.654A45.781 45.781 0 0 1 45.653 0h1013.962a45.781 45.781 0 0 1 45.653 45.653v782.563a45.59 45.59 0 0 1-45.653 45.46zM91.37 782.37h922.527V91.306H91.37zM200.964 932.63h703.34V1024h-703.34zM354.573 288.498l64.612-64.605 331.542 331.541-64.612 64.606zM354.573 555.524l331.542-331.542 64.612 64.605L419.185 620.13z" /></svg>