<?xml version="1.0" standalone="no"?><!DOCTYPE svg PUBLIC "-//W3C//DTD SVG 1.1//EN" "http://www.w3.org/Graphics/SVG/1.1/DTD/svg11.dtd"><svg class="icon" width="200px" height="200.00px" viewBox="0 0 1024 1024" version="1.1" xmlns="http://www.w3.org/2000/svg"><path fill="#ffffff" d="M1020.990119 970.270419l-50.7197 50.7197a10.246404 10.246404 0 0 1-14.485854 0L665.222164 730.427717A408.125799 408.125799 0 0 1 409.85616 819.71232C183.499007 819.71232 0 636.212033 0 409.85616S183.499007 0 409.85616 0s409.85616 183.499007 409.85616 409.85616a408.125799 408.125799 0 0 1-89.284603 255.366004l290.562402 290.562401a10.246404 10.246404 0 0 1 0 14.485854zM408.57536 90.936836C233.147957 90.936836 90.936836 233.147957 90.936836 408.57536s142.211122 317.638524 317.638524 317.638524 317.638524-142.20728 317.638524-317.638524S584.006604 90.936836 408.57536 90.936836z"  /></svg>