<?xml version="1.0" standalone="no"?><!DOCTYPE svg PUBLIC "-//W3C//DTD SVG 1.1//EN" "http://www.w3.org/Graphics/SVG/1.1/DTD/svg11.dtd"><svg class="icon" width="200px" height="200.00px" viewBox="0 0 1024 1024" version="1.1" xmlns="http://www.w3.org/2000/svg"><path fill="#ffffff" d="M342.144 96.064l-5.696 3.264-1.792 1.152c-78.144 46.144-131.712 88.576-167.296 130.24-35.52 41.344-52.864 83.072-53.248 123.456-1.088 80.128 58.112 140.224 110.656 193.984 52.352 53.632 99.264 104.256 103.552 146.176 2.24 21.376-2.88 42.816-25.984 72.256-23.36 29.12-65.344 64.32-132.736 103.488l-99.328 57.92h613.248l7.104-4.352c71.488-41.472 119.488-79.872 150.016-118.464 30.72-38.784 43.2-79.36 39.168-117.248-7.872-75.392-69.44-130.24-120.896-183.232-51.712-52.864-93.632-102.784-92.928-149.824 0.192-23.744 9.344-50.112 38.208-83.776 28.864-33.792 77.504-73.024 151.808-117.184l97.6-57.92h-611.456v0.064z m17.152 62.08h377.6c-33.28 24.832-59.584 48.704-79.744 72.576-35.52 41.344-52.864 83.072-53.184 123.456-1.088 80.128 57.984 140.224 110.592 193.984 52.48 53.632 99.328 104.256 103.488 146.176 2.24 21.376-2.624 42.816-26.112 72.256-22.144 28.096-62.4 61.76-125.44 99.264h-378.56a371.2 371.2 0 0 0 63.04-60.672c30.72-38.784 43.328-79.36 39.168-117.248-7.744-75.392-69.312-130.24-120.896-183.232-51.712-52.864-93.44-102.784-92.928-149.824 0.192-23.744 9.344-50.112 38.272-83.776 27.712-32.704 74.432-70.528 144.704-112.96z m-88.32 106.048v28.672h295.168v-28.672h-295.168z m-11.008 154.56v28.736h305.28v-28.736h-305.28z m138.304 154.624v28.672h295.552v-28.672h-295.552z m42.368 154.624v28.672h306.176v-28.672h-306.176z" /></svg>