<?xml version="1.0" standalone="no"?><!DOCTYPE svg PUBLIC "-//W3C//DTD SVG 1.1//EN" "http://www.w3.org/Graphics/SVG/1.1/DTD/svg11.dtd"><svg class="icon" width="200px" height="200.00px" viewBox="0 0 1024 1024" version="1.1" xmlns="http://www.w3.org/2000/svg"><path fill="#000000" d="M788.5 509L627 833.8l9.9 124 104.7-67.1L903 566l-114.5-57zM845.4 394.4l-38 76.4 114.6 57 38-76.4-114.6-57zM160 896c-17.7 0-32-14.3-32-32V160c0-17.7 14.3-32 32-32h543.1c17.7 0 32 14.3 32 32v256c0 17.7 14.3 32 32 32s32-14.3 32-32V128c0-35.3-28.7-64-64-64H128c-35.4 0-64 28.7-64 64v768c0 35.3 28.7 64 64 64h416.6c17.7 0 32-14.3 32-32s-14.3-32-32-32H160zM623.1 255H239c-17.7 0-32 14.3-32 32s14.3 32 32 32h384.1c17.7 0 32-14.3 32-32 0.1-17.7-14.3-32-32-32zM623.1 447H239c-17.7 0-32 14.3-32 32s14.3 32 32 32h384.1c17.7 0 32-14.3 32-32 0.1-17.7-14.3-32-32-32zM431.1 639H239c-17.7 0-32 14.3-32 32s14.3 32 32 32h192.1c17.7 0 32-14.3 32-32s-14.3-32-32-32z" /></svg>