<?xml version="1.0" standalone="no"?><!DOCTYPE svg PUBLIC "-//W3C//DTD SVG 1.1//EN" "http://www.w3.org/Graphics/SVG/1.1/DTD/svg11.dtd"><svg class="icon" width="200px" height="200.00px" viewBox="0 0 1024 1024" version="1.1" xmlns="http://www.w3.org/2000/svg"><path fill="#000000" d="M512 315.1c21.7 0 39.4-17.6 39.4-39.4V39.4C551.4 17.6 533.7 0 512 0s-39.4 17.6-39.4 39.4v236.3c0 21.8 17.6 39.4 39.4 39.4zM317 372.8c7.7 7.7 17.8 11.5 27.8 11.5s20.2-3.8 27.8-11.5c15.4-15.4 15.4-40.3 0-55.7L205.6 150c-15.4-15.4-40.3-15.4-55.7 0s-15.4 40.3 0 55.7L317 372.8zM315.1 512c0-21.8-17.6-39.4-39.4-39.4H39.4C17.6 472.6 0 490.3 0 512s17.6 39.4 39.4 39.4h236.3c21.7 0 39.4-17.6 39.4-39.4zM317.1 651.3L150 818.4c-15.4 15.4-15.4 40.3 0 55.7 7.7 7.7 17.8 11.5 27.8 11.5s20.2-3.8 27.8-11.5L372.8 707c15.4-15.4 15.4-40.3 0-55.7-15.4-15.4-40.3-15.4-55.7 0zM512 708.9c-21.7 0-39.4 17.6-39.4 39.4v236.3c0 21.8 17.6 39.4 39.4 39.4s39.4-17.6 39.4-39.4V748.3c0-21.8-17.6-39.4-39.4-39.4zM707 651.2c-15.4-15.4-40.3-15.4-55.7 0-15.4 15.4-15.4 40.3 0 55.7L818.4 874c7.7 7.7 17.8 11.5 27.8 11.5 10.1 0 20.2-3.8 27.8-11.5 15.4-15.4 15.4-40.3 0-55.7L707 651.2zM984.6 472.6H748.3c-21.7 0-39.4 17.6-39.4 39.4 0 21.8 17.6 39.4 39.4 39.4h236.3c21.7 0 39.4-17.6 39.4-39.4 0-21.8-17.6-39.4-39.4-39.4zM679.1 384.3c10.1 0 20.2-3.8 27.8-11.5L874 205.7c15.4-15.4 15.4-40.3 0-55.7-15.4-15.4-40.3-15.4-55.7 0L651.2 317c-15.4 15.4-15.4 40.3 0 55.7 7.7 7.7 17.8 11.6 27.9 11.6z" /></svg>