<?xml version="1.0" standalone="no"?><!DOCTYPE svg PUBLIC "-//W3C//DTD SVG 1.1//EN" "http://www.w3.org/Graphics/SVG/1.1/DTD/svg11.dtd"><svg class="icon" width="200px" height="200.00px" viewBox="0 0 1024 1024" version="1.1" xmlns="http://www.w3.org/2000/svg"><path d="M176 64a47.744 47.744 0 0 0-48 48v864c0 26.688 21.312 48 48 48h672c26.752 0 48-21.248 48-48V384l-264-56L576 64z" fill="#000000" /><path d="M576 64v266.688c0 29.312 24 53.312 53.312 53.312H896z" fill="#FAFAFA" /><path d="M320 448v64h384V448z m0 128v64h384V576z m0 128v64h384v-64z m0 128v64h192v-64z" fill="#ffffff"/></svg>