<?xml version="1.0" standalone="no"?><!DOCTYPE svg PUBLIC "-//W3C//DTD SVG 1.1//EN" "http://www.w3.org/Graphics/SVG/1.1/DTD/svg11.dtd"><svg class="icon" width="200px" height="200.00px" viewBox="0 0 1024 1024" version="1.1" xmlns="http://www.w3.org/2000/svg"><path fill="#ffffff" d="M409.974325 947.106726h-91.470271l-14.136975-84.825944c-15.70161-4.867868-29.90203-10.82658-42.416042-17.779946l-69.464071 48.843429-63.86454-65.26954 49.875944-69.399603c-7.556093-13.93743-13.393032-28.02938-17.978466-43.391252l-83.62663-15.207354v-91.419106l83.767846-14.143115c4.867868-15.70161 10.82658-29.915333 17.792225-42.435484l-48.849568-69.464072 65.269539-63.86454 69.540819 49.978275c13.482059-6.985088 27.362184-12.596899 42.070165-16.990976l14.117532-84.71645h91.477434l15.214517 84.793198c15.70161 4.861728 29.915333 10.8143 42.441624 17.766642l69.367881-49.850361 64.070224 64.056921-49.837058 70.419839c6.952342 12.507872 12.904914 26.708292 17.766642 42.39046l84.825944 14.136975v91.52246l-86.410022 15.124465c-3.89982 14.932084-9.576099 28.965705-17.183358 42.499953l49.772591 69.246107-63.903426 65.288982-70.490447-49.888223c-13.065574 7.363711-27.105335 13.264095-42.537816 17.888415l-15.202237 84.689845z m-69.213361-26.272364h47.239907l14.251586-79.405491 8.107655-2.13564c19.216667-5.054109 35.905768-12.103666 51.024094-21.550828l7.408736-4.630461 66.308195 46.924729 32.782638-33.500998-47.040363-65.448618 4.669346-7.472182c9.890254-15.823384 16.547885-32.30066 20.358677-50.38862l1.834788-8.69708 81.9525-14.347776v-47.187719l-79.251995-13.20679-2.238994-8.068769c-5.51562-19.87056-12.783141-37.092803-21.601994-51.203172l-4.631483-7.408737 46.989197-66.404386-32.615839-32.615838-65.346287 46.969754-7.472182-4.669346c-14.111392-8.818853-31.332612-16.086373-51.203172-21.603017l-7.953136-2.206248-14.226002-79.283718h-47.246048l-13.232372 79.379908-8.216126 2.161223c-18.382673 4.836145-35.244712 11.641131-51.542909 20.806885l-7.305383 4.105505-65.096601-46.784537-33.519418 32.808221 45.879934 65.250096-4.618181 7.389294c-8.818853 14.110369-16.086373 31.338752-21.603017 51.203172l-2.231831 8.049327-78.206176 13.199626v47.291073l78.360695 14.245446 2.1295 8.088212c5.002944 19.030425 11.911284 35.674501 21.730931 52.383044l4.341888 7.375991-46.886867 65.237817 32.801057 33.519418 65.250097-45.879934 7.389294 4.618181c14.104229 8.812713 31.332612 16.080234 51.203172 21.603017l8.068769 2.238994 13.20372 79.250972z m25.64917-154.476257c-60.555168 0-109.815081-49.266054-109.815081-109.821221 0-60.555168 49.259914-109.815081 109.815081-109.815081s109.815081 49.259914 109.815081 109.815081c0 60.555168-49.259914 109.821221-109.815081 109.821221z m0-193.363939c-46.066175 0-83.542718 37.477566-83.542718 83.542718 0 46.072315 37.477566 83.549881 83.542718 83.549881s83.542718-37.477566 83.542718-83.549881c0.001023-46.065152-37.476543-83.542718-83.542718-83.542718z m409.864832-52.460816l-35.116799-55.962569a177.497577 177.497577 0 0 1-31.871895-0.013303l-36.1882 55.917544-68.796876-28.420283 15.368012-64.73742a172.310438 172.310438 0 0 1-23.083741-23.103184l-64.794725 14.284331-28.311813-70.041216 55.930847-34.001395c-0.936325-10.416234-0.916882-20.928658 0.070608-31.801287l-54.871725-36.219923 28.394701-68.73957 63.646575 15.361872c7.703449-9.524934 15.240099-17.157775 23.058159-23.366173l-14.207583-64.474431 69.89386-28.253484 35.065633 55.891961c10.396791-0.942465 20.896936-0.930185 31.730679 0.038886l35.136241-56.001455 68.771293 28.408003-14.316053 64.973804c7.613398 6.529717 15.521508 14.033621 22.435988 22.744004l64.49285-15.303544 28.324092 70.054519-55.898101 35.071773a176.065971 176.065971 0 0 1 0 31.742958l55.968709 35.116799-28.311812 68.547189-66.718541-13.130042c-6.561439 7.978718-14.239306 15.669888-22.211884 22.25691l15.348569 64.679092-68.937068 28.479634zM635.037221 476.328569l27.888164 11.513218 33.301453-51.460022 8.31948 1.179872c13.57825 1.937119 27.913746 1.937119 41.479716 0l8.447393-1.199315 32.268938 51.421137 27.734668-11.455913-14.136976-59.611679 7.067976-5.144161c10.378371-7.54893 21.083178-18.254759 28.632108-28.632107l4.932336-6.779404 61.760622 12.148692 11.622712-28.138874-51.43444-32.275078 1.212618-8.447392c1.937119-13.558807 1.937119-27.901467 0-41.466414l-1.212618-8.447393 51.505048-32.320103-11.609409-28.722158-59.913555 14.219863-5.067412-7.607259c-7.81192-11.725042-18.998703-21.589714-28.91454-29.690206l-6.253424-5.112437 13.026688-59.130726-27.901467-11.526521-32.223912 51.357692-8.376785-1.116427c-14.508435-1.930979-28.119431-1.937119-41.588187-0.019443l-8.447392 1.212618-32.320103-51.505048-28.895098 11.680017 13.199627 59.932997-7.472182 4.983502c-9.832949 6.5553-19.158339 15.932878-29.350468 29.53057l-5.189186 6.91448-58.425667-14.104229-11.538801 27.933189 50.369178 33.250288-1.083682 8.158821c-1.930979 14.521738-1.937119 28.131711-0.019442 41.60149l1.224897 8.575306-51.453882 31.281447 11.622712 28.747741 59.413158-13.091156 5.073552 6.767124c8.761548 11.673877 18.280342 21.191648 29.953195 29.953195l6.888898 5.163603-14.116509 59.476603z m90.74577-91.316775c-10.961656 0-22.166859-2.020006-33.102932-6.272867l-0.288572-0.115634c-21.544689-8.973372-38.292118-25.726941-47.155997-47.175439-8.883321-21.467941-8.832156-45.154409 0.147356-66.686818 18.35095-44.051285 68.251454-64.730257 113.560382-47.124274 44.661176 18.61394 65.750493 69.688175 47.303353 113.977891-13.930267 33.417087-46.000684 53.397141-80.46359 53.397141z m-23.436782-30.704302c31.890314 12.32163 66.834174-2.078335 79.650062-32.801057 12.879332-30.916127-1.866511-66.577325-32.865526-79.501682-31.634488-12.288884-66.680678 2.078335-79.495542 32.865525-6.272867 15.040555-6.317892 31.57002-0.121773 46.539966 6.169513 14.924921 17.830087 26.604938 32.832779 32.897248z" /></svg>