<?xml version="1.0" standalone="no"?><!DOCTYPE svg PUBLIC "-//W3C//DTD SVG 1.1//EN" "http://www.w3.org/Graphics/SVG/1.1/DTD/svg11.dtd"><svg class="icon" width="200px" height="200.00px" viewBox="0 0 1024 1024" version="1.1" xmlns="http://www.w3.org/2000/svg"><path fill="#000000" d="M911.402667 432.554667a93.013333 93.013333 0 0 1 0 131.541333l-337.493334 337.493333a53.76 53.76 0 0 1-37.973333 15.744h-72.746667a36.522667 36.522667 0 0 1-36.522666-36.522666v-72.746667c0-14.250667 5.674667-27.904 15.744-37.973333l337.536-337.493334a93.013333 93.013333 0 0 1 131.456 0zM938.666667 633.856v187.477333a96 96 0 0 1-96 96h-202.752L704 853.333333h138.666667a32 32 0 0 0 32-32v-126.976l64-60.501333zM666.88 85.333333c11.733333 0 23.125333 3.882667 32.384 10.965334L923.306667 288c10.538667 10.069333 15.36 23.850667 15.36 38.4l-0.426667 52.48a110.122667 110.122667 0 0 0-32-18.346667 83.626667 83.626667 0 0 0-31.573333-4.266666l-0.384-25.6L682.666667 166.058667v122.026666a74.666667 74.666667 0 0 1-74.666667 74.666667h-256a74.666667 74.666667 0 0 1-74.666667-74.666667V149.333333L181.290667 149.333333a32 32 0 0 0-32 32v640c0 17.664 14.336 32 32 32L213.333333 853.290667v-244.736a74.666667 74.666667 0 0 1 68.522667-74.410667l6.144-0.256h309.717333l-66.133333 64H288a10.666667 10.666667 0 0 0-10.368 8.234667l-0.298667 2.432V853.333333L362.325333 853.333333v64H181.333333A96 96 0 0 1 85.333333 821.333333v-640A96 96 0 0 1 181.290667 85.333333h485.546666z m158.634667 392.789334l-334.378667 334.378666v40.362667h40.362667l334.336-334.336a28.586667 28.586667 0 0 0-40.32-40.405333zM618.666667 149.333333H341.333333v138.794667c0 5.888 4.778667 10.666667 10.666667 10.666667h256a10.666667 10.666667 0 0 0 10.666667-10.666667V149.333333z"  /></svg>