<?xml version="1.0" standalone="no"?><!DOCTYPE svg PUBLIC "-//W3C//DTD SVG 1.1//EN" "http://www.w3.org/Graphics/SVG/1.1/DTD/svg11.dtd"><svg class="icon" width="200px" height="200.00px" viewBox="0 0 1024 1024" version="1.1" xmlns="http://www.w3.org/2000/svg"><path fill="#ffffff" d="M684.471 610.953c-43.431 0-78.769 35.332-78.769 78.769s35.337 78.78 78.77 78.78 78.768-35.343 78.768-78.78-35.337-78.77-78.769-78.77z m0 102.945c-13.325 0-24.166-10.846-24.166-24.176 0-13.32 10.84-24.167 24.166-24.167s24.167 10.846 24.167 24.167c0 13.33-10.841 24.176-24.167 24.176z"  /><path fill="#ffffff" d="M876.669 651.853c-2.12-11.074-8.847-18.193-17.016-18.036h-1.7c-28.141 0-51.048-22.644-51.048-50.445 0-9.164 4.398-19.216 4.451-19.295 4.284-9.882 1.024-21.416-7.801-27.59l-0.496-0.34-49.084-26.965-0.527-0.236a26.015 26.015 0 0 0-27.825 5.472c-5.97 6.127-24.87 21.99-40.131 21.99-15.394 0-34.424-16.18-40.418-22.409a25.923 25.923 0 0 0-27.803-5.708l-0.55 0.236-50.813 27.592-0.496 0.342c-8.834 6.167-12.106 17.703-7.828 27.592 0.053 0.103 4.453 10.156 4.453 19.32 0 27.827-22.908 50.445-51.049 50.445h-1.7c-8.22-0.157-14.92 6.936-17.043 18.036-0.184 0.864-4.11 21.675-4.11 38.037 0 16.387 3.926 37.173 4.11 38.038 2.093 10.942 8.664 18.037 16.728 18.037l0.314-0.026h1.701c28.141 0 51.049 22.668 51.049 50.47 0 9.163-4.4 19.214-4.424 19.292-4.29 9.881-1.055 21.412 7.746 27.618l0.445 0.343 48.168 26.622 0.524 0.236a25.424 25.424 0 0 0 27.907-5.786c5.655-6.1 25.312-23.404 41.047-23.404 15.837 0 35.21 17.2 41.308 23.822a25.346 25.346 0 0 0 18.56 7.829 23.07 23.07 0 0 0 9.268-1.834l0.549-0.209 49.923-27.278 0.523-0.368c8.82-6.165 12.08-17.689 7.801-27.565-0.055-0.104-4.453-10.13-4.453-19.32 0-27.827 22.907-50.469 51.049-50.469h1.7c8.169 0.181 14.895-6.913 17.016-18.011 0.184-0.864 4.111-21.65 4.111-38.038 0.002-16.361-3.925-37.173-4.136-38.037z m-50.74 44.42c-42.636 13.533-73.595 53.313-73.595 100.141 0 4.224 0.33 8.351 0.874 12.264L747.3 811.9c-15.016-11.816-37.785-25.168-63.849-25.168-25.5 0-48.118 13.096-63.135 24.667l-4.564-2.517c0.555-3.988 0.886-8.168 0.886-12.467 0-46.838-30.97-86.628-73.618-100.14-0.17-2.283-0.278-4.448-0.278-6.379 0-1.94 0.107-4.116 0.278-6.41 42.648-13.511 73.618-53.29 73.618-100.118 0-4.202-0.33-8.297-0.864-12.19l7.316-3.978c14.963 11.325 37.188 23.814 62.399 23.814 24.88 0 46.86-12.147 61.738-23.238l5.983 3.285c-0.587 4.212-0.907 8.36-0.907 12.307 0 46.838 30.97 86.607 73.628 100.119 0.17 2.282 0.278 4.468 0.278 6.41-0.003 1.93-0.11 4.106-0.28 6.377z m-516.643-228.94c-15.08 0-27.302 12.221-27.302 27.3s12.222 27.302 27.302 27.302h207.49c15.08 0 27.301-12.222 27.301-27.301s-12.222-27.301-27.301-27.301h-207.49z m368.568-125.587c0-15.08-12.222-27.301-27.301-27.301H309.286c-15.08 0-27.302 12.222-27.302 27.301s12.222 27.302 27.302 27.302h341.267c15.08 0 27.301-12.222 27.301-27.302z"  /><path fill="#ffffff" d="M198.363 719.774V257.645c0-33.12 26.944-60.063 60.063-60.063h442.98c33.12 0 60.063 26.944 60.063 60.063V410.63h54.603V257.645c0-63.225-51.44-114.665-114.665-114.665H258.426c-63.225 0-114.666 51.44-114.666 114.665v462.13c0 63.23 51.441 114.665 114.666 114.665h153.608v-54.603H258.426c-33.12 0-60.063-26.95-60.063-60.063z"  /></svg>