<?xml version="1.0" standalone="no"?><!DOCTYPE svg PUBLIC "-//W3C//DTD SVG 1.1//EN" "http://www.w3.org/Graphics/SVG/1.1/DTD/svg11.dtd"><svg class="icon" width="200px" height="200.00px" viewBox="0 0 1024 1024" version="1.1" xmlns="http://www.w3.org/2000/svg"><path fill="#ffffff" d="M469.333333 256c58.88 0 112.213333 23.893333 150.826667 62.506667L512 426.666667h256V170.666667l-87.466667 87.466666C626.56 204.16 551.893333 170.666667 469.333333 170.666667 318.933333 170.666667 194.773333 282.026667 174.08 426.666667h86.186667c19.84-97.28 105.813333-170.666667 209.066666-170.666667z m240.64 389.76c28.373333-38.613333 47.573333-84.266667 54.613334-133.76H678.4c-19.84 97.28-105.813333 170.666667-209.066667 170.666667-58.88 0-112.213333-23.893333-150.826666-62.506667L426.666667 512H170.666667v256l87.466666-87.466667c53.973333 53.973333 128.64 87.466667 211.2 87.466667 66.133333 0 127.146667-21.76 176.64-58.24L853.333333 916.906667 916.906667 853.333333l-206.933334-207.573333z" /></svg>