<?xml version="1.0" standalone="no"?><!DOCTYPE svg PUBLIC "-//W3C//DTD SVG 1.1//EN" "http://www.w3.org/Graphics/SVG/1.1/DTD/svg11.dtd"><svg class="icon" width="200px" height="200.00px" viewBox="0 0 1024 1024" version="1.1" xmlns="http://www.w3.org/2000/svg"><path fill="#ffffff" d="M384.199688 408.960998V639.00156c0 25.560062 17.572543 43.132605 43.132605 43.132605s43.132605-17.572543 43.132606-43.132605V84.667707h127.800312V639.00156c0 25.560062 17.572543 43.132605 43.132605 43.132605s43.132605-17.572543 43.132605-43.132605V84.667707H895.400936c25.560062 0 43.132605-17.572543 43.132605-43.132606S920.960998 0 895.400936 0H379.407176c-115.020281 0-204.480499 89.460218-204.480499 204.480499S269.179407 408.960998 384.199688 408.960998z m0-324.293291v238.028081c-68.692668 0-123.0078-51.120125-123.0078-119.812793s51.120125-118.215289 123.0078-118.215288zM895.400936 809.934477H238.826833l51.120125-43.132605c17.572543-12.780031 20.767551-43.132605 7.987519-59.107644-12.780031-17.572543-43.132605-20.767551-59.107644-7.98752l-127.800312 102.24025c-17.572543 17.572543-25.560062 33.547582-25.560062 55.912636 0 20.767551 7.98752 43.132605 25.560062 55.912637l127.800312 102.240249c7.98752 4.792512 17.572543 7.98752 25.560062 7.98752 12.780031 0 25.560062-4.792512 33.547582-17.572543 12.780031-17.572543 12.780031-46.327613-7.987519-59.107644l-63.900156-51.120125H895.400936c25.560062 0 43.132605-17.572543 43.132605-43.132605 0-27.157566-17.572543-43.132605-43.132605-43.132606z" /></svg>