<?xml version="1.0" standalone="no"?><!DOCTYPE svg PUBLIC "-//W3C//DTD SVG 1.1//EN" "http://www.w3.org/Graphics/SVG/1.1/DTD/svg11.dtd"><svg class="icon" width="200px" height="200.00px" viewBox="0 0 1024 1024" version="1.1" xmlns="http://www.w3.org/2000/svg"><path fill="#000000" d="M515.755 880.163c0.606-0.059 1.194-0.174 1.791-0.258 0.725-0.104 1.45-0.188 2.168-0.332 0.687-0.135 1.351-0.325 2.024-0.495 0.622-0.156 1.247-0.293 1.861-0.479 0.661-0.202 1.298-0.448 1.945-0.68 0.614-0.219 1.232-0.422 1.836-0.671 0.604-0.25 1.181-0.544 1.771-0.821 0.622-0.293 1.251-0.569 1.861-0.897 0.563-0.301 1.097-0.645 1.644-0.972 0.6-0.358 1.206-0.696 1.791-1.087 0.606-0.405 1.175-0.856 1.756-1.292 0.487-0.364 0.987-0.701 1.459-1.091 1.044-0.856 2.048-1.76 3.001-2.714l173.668-173.668c15.986-15.986 15.986-41.907 0-57.894s-41.907-15.986-57.894 0l-103.784 103.784v-556.173c0-22.61-18.328-40.937-40.937-40.937-22.61 0-40.937 18.328-40.937 40.937v556.176l-103.784-103.784c-15.986-15.986-41.907-15.986-57.894 0s-15.986 41.907 0 57.894l173.668 173.668c0.954 0.954 1.957 1.856 3.001 2.712 0.473 0.39 0.972 0.727 1.459 1.091 0.581 0.436 1.152 0.886 1.756 1.292 0.583 0.391 1.189 0.729 1.787 1.087 0.549 0.327 1.083 0.671 1.648 0.974 0.088 0.047 0.17 0.106 0.258 0.153 0.524 0.276 1.068 0.493 1.603 0.743 0.587 0.279 1.167 0.571 1.771 0.821 0.606 0.25 1.224 0.452 1.838 0.673 0.645 0.231 1.283 0.479 1.942 0.68 0.078 0.023 0.151 0.057 0.228 0.080 0.538 0.161 1.089 0.262 1.631 0.399 0.673 0.17 1.339 0.358 2.024 0.495 0.718 0.143 1.445 0.227 2.168 0.332 0.598 0.086 1.185 0.199 1.791 0.258 1.344 0.133 2.692 0.204 4.040 0.205 1.349-0.004 2.698-0.076 4.040-0.209zM1023.429 511.926c0-282.612-229.103-511.714-511.714-511.714s-511.714 229.103-511.714 511.714 229.103 511.714 511.714 511.714 511.714-229.103 511.714-511.714zM81.874 511.929c0-237.396 192.446-429.84 429.84-429.84s429.84 192.446 429.84 429.84-192.446 429.84-429.84 429.84-429.84-192.448-429.84-429.84z" /></svg>