<?xml version="1.0" standalone="no"?><!DOCTYPE svg PUBLIC "-//W3C//DTD SVG 1.1//EN" "http://www.w3.org/Graphics/SVG/1.1/DTD/svg11.dtd"><svg class="icon" width="200px" height="200.00px" viewBox="0 0 1024 1024" version="1.1" xmlns="http://www.w3.org/2000/svg"><path fill="#000000" d="M146.752 877.248c12.032 11.968 28.288 18.752 45.248 18.752h640a64.064 64.064 0 0 0 64-64V544h-64V832H192V192h288V128H192a64.064 64.064 0 0 0-64 64v640c0 16.96 6.784 33.28 18.752 45.248z"  fill-opacity=".9" /><path fill="#000000" d="M576 192V128h288a32 32 0 0 1 32 32V448h-64V237.248L557.248 512 512 466.752 786.752 192H576z"  fill-opacity=".9" /></svg>