<?xml version="1.0" standalone="no"?><!DOCTYPE svg PUBLIC "-//W3C//DTD SVG 1.1//EN" "http://www.w3.org/Graphics/SVG/1.1/DTD/svg11.dtd"><svg class="icon" width="200px" height="200.00px" viewBox="0 0 1024 1024" version="1.1" xmlns="http://www.w3.org/2000/svg"><path fill="#ffffff" d="M512 693.333333l170.666667-170.666667-128 0 0-384-85.333333 0 0 384-128 0 170.666667 170.666667zM896 138.666667l-256 0 0 84.693333 256 0 0 598.613333-768 0 0-598.613333 256 0 0-84.693333-256 0c-47.146667 0-85.333333 38.186667-85.333333 85.333333l0 597.333333c0 47.146667 38.186667 85.333333 85.333333 85.333333l768 0c47.146667 0 85.333333-38.186667 85.333333-85.333333l0-597.333333c0-47.146667-38.186667-85.333333-85.333333-85.333333z"  /></svg>