<?xml version="1.0" standalone="no"?><!DOCTYPE svg PUBLIC "-//W3C//DTD SVG 1.1//EN" "http://www.w3.org/Graphics/SVG/1.1/DTD/svg11.dtd"><svg class="icon" width="200px" height="200.00px" viewBox="0 0 1024 1024" version="1.1" xmlns="http://www.w3.org/2000/svg"><path fill="#000000" d="M181.76 955.733333a17.015467 17.015467 0 0 1-12.066133-5.000533l-85.333334-85.333333a17.0496 17.0496 0 0 1-0.187733-23.927467l318.685867-329.147733L334.267733 443.733333H170.666667a17.015467 17.015467 0 0 1-12.066134-5.000533l-85.333333-85.333333A17.015467 17.015467 0 0 1 68.266667 341.333333V170.666667a17.1008 17.1008 0 0 1 29.1328-12.066134l115.933866 115.933867 61.201067-61.201067-115.933867-115.933866A17.066667 17.066667 0 0 1 170.666667 68.266667h170.666666c4.522667 0 8.874667 1.792 12.066134 5.000533l85.333333 85.333333A17.015467 17.015467 0 0 1 443.733333 170.666667v163.601066l110.933334 110.933334 243.933866-243.933867a17.0496 17.0496 0 1 1 24.132267 24.132267L578.798933 469.333333l330.120534 330.120534c14.728533 15.4624 22.0672 33.501867 22.0672 53.879466a77.277867 77.277867 0 0 1-22.1184 54.801067 77.824 77.824 0 0 1-8.6016 7.4752c-13.2608 10.325333-29.098667 15.291733-46.813867 14.506667-19.626667 0.785067-38.382933-6.314667-53.691733-20.923734L517.922133 627.387733 193.809067 950.749867a17.066667 17.066667 0 0 1-12.049067 4.983466z m-61.3888-102.6048l61.405867 61.422934 324.1472-323.328a16.810667 16.810667 0 0 1 1.877333-1.621334l5.085867-4.4032 27.921066-28.586666-36.488533-35.874134-0.136533-0.136533-30.464-30.446933-33.9456 34.56a4.334933 4.334933 0 0 1-0.494934 0.477866l-0.017066 0.017067-16.110934 15.291733-0.1024 0.1024L120.3712 853.128533z m733.2352 42.888534c10.939733 0.273067 18.926933-2.065067 25.9584-7.5264 1.860267-1.399467 3.5328-2.850133 5.1712-4.5056A43.178667 43.178667 0 0 0 896.853333 853.333333c0-11.485867-4.0448-21.316267-12.356266-30.0544L554.8032 493.602133l-14.421333 14.7456 36.488533 35.857067a17.066667 17.066667 0 0 1 0.238933 24.098133l-34.6112 35.362134 281.105067 281.122133c8.379733 8.004267 17.988267 11.707733 30.0032 11.229867zM177.732267 409.6H341.333333c4.522667 0 8.874667 1.792 12.066134 5.000533l74.001066 74.001067 34.013867-34.645333a17.066667 17.066667 0 0 1 12.100267-5.102934h0.068266c4.522667 0 8.874667 1.792 12.066134 5.000534l30.464 30.464 14.5408-14.848-116.0704-116.0704A17.066667 17.066667 0 0 1 409.6 341.333333v-163.601066L334.267733 102.4h-122.402133l98.8672 98.8672a17.0496 17.0496 0 0 1 0 24.132267l-85.333333 85.333333a17.0496 17.0496 0 0 1-24.132267 0L102.4 211.8656v122.402133L177.732267 409.6z"  /><path fill="#000000" d="M914.517333 61.201067l48.2816 48.264533-128 128-48.2816-48.264533zM889.890133 877.960533l24.132267 24.132267-11.9296 11.946667-24.132267-24.149334z"  /></svg>