<?xml version="1.0" standalone="no"?><!DOCTYPE svg PUBLIC "-//W3C//DTD SVG 1.1//EN" "http://www.w3.org/Graphics/SVG/1.1/DTD/svg11.dtd"><svg class="icon" width="200px" height="200.00px" viewBox="0 0 1024 1024" version="1.1" xmlns="http://www.w3.org/2000/svg"><path fill="#00ff00" d="M128 213.333333h768a42.666667 42.666667 0 1 0 0-85.333333H128a42.666667 42.666667 0 1 0 0 85.333333z m768 597.333334H469.333333a42.666667 42.666667 0 1 0 0 85.333333h426.666667a42.666667 42.666667 0 1 0 0-85.333333z m0-341.333334H128a42.666667 42.666667 0 1 0 0 85.333334h768a42.666667 42.666667 0 1 0 0-85.333334z m0 170.666667H128a42.666667 42.666667 0 0 0 0 85.333333h768a42.666667 42.666667 0 1 0 0-85.333333z m0-341.333333H128a42.666667 42.666667 0 1 0 0 85.333333h768a42.666667 42.666667 0 1 0 0-85.333333z"  /></svg>