<?xml version="1.0" standalone="no"?><!DOCTYPE svg PUBLIC "-//W3C//DTD SVG 1.1//EN" "http://www.w3.org/Graphics/SVG/1.1/DTD/svg11.dtd"><svg class="icon" width="200px" height="200.00px" viewBox="0 0 1024 1024" version="1.1" xmlns="http://www.w3.org/2000/svg"><path fill="#00ff00" d="M243.285333 170.581333c-86.954667 0-157.354667 68.992-157.354666 154.666667v373.333333c0 85.674667 70.4 154.666667 157.354666 154.666667h538.666667c86.912 0 157.312-68.992 157.312-154.666667v-373.333333c0-85.674667-70.4-154.666667-157.312-154.666667H243.285333z m0 85.333334h538.666667c40.32 0 71.978667 31.317333 71.978667 69.333333v373.333333c0 37.973333-31.658667 69.333333-71.978667 69.333334H243.285333c-40.32 0-72.021333-31.317333-72.021333-69.333334v-373.333333c0-38.016 31.701333-69.333333 72.021333-69.333333z m55.978667 85.333333a42.666667 42.666667 0 0 0-42.666667 42.666667v128a42.666667 42.666667 0 0 0 85.333334 0v-85.333334h85.333333a42.666667 42.666667 0 0 0 0-85.333333h-128z m426.666667 128a42.666667 42.666667 0 0 0-42.666667 42.666667v85.333333h-85.333333a42.666667 42.666667 0 0 0 0 85.333333h128a42.666667 42.666667 0 0 0 42.666666-42.666666v-128a42.666667 42.666667 0 0 0-42.666666-42.666667z"  /></svg>
