<?xml version="1.0" standalone="no"?><!DOCTYPE svg PUBLIC "-//W3C//DTD SVG 1.1//EN" "http://www.w3.org/Graphics/SVG/1.1/DTD/svg11.dtd"><svg class="icon" width="200px" height="200.00px" viewBox="0 0 1024 1024" version="1.1" xmlns="http://www.w3.org/2000/svg"><path fill="#000000" d="M588.8 409.6a25.6 25.6 0 0 0 25.6-25.6v-204.8c0-42.3424-34.4576-76.8-76.8-76.8h-460.8C34.4576 102.4 0 136.8576 0 179.2v614.4c0 38.1952 27.4944 79.872 62.5664 94.8736l264.2944 113.2544c9.1136 3.8912 18.3808 5.8368 27.2384 5.8368 10.9056 0 21.2992-2.9696 30.1568-8.8064 16.0768-10.5984 25.344-29.44 25.344-51.6096v-76.8h128c42.3424 0 76.8-34.4576 76.8-76.8v-204.8a25.6 25.6 0 0 0-51.2 0v204.8a25.6 25.6 0 0 1-25.6 25.6H409.6v-486.4c0-38.1952-27.4944-79.872-62.5664-94.8736L150.3232 153.5488H537.6a25.6 25.6 0 0 1 25.6 25.6v204.8a25.6 25.6 0 0 0 25.6 25.6zM326.8608 284.9792c16.4864 7.0656 31.5392 29.9008 31.5392 47.8208v614.4c0 5.3248-1.4336 8.2944-2.304 8.8576s-4.1472 0.7168-9.0624-1.3824l-264.2944-113.2544C66.2528 834.3552 51.2 811.5712 51.2 793.6v-614.4c0-4.0448 0.9216-7.8336 2.6112-11.264l273.0496 117.0432z"  /><path fill="#000000" d="M939.7248 468.2752l-153.6-153.6a25.6 25.6 0 0 0-36.1984 36.1984l109.8752 109.8752H537.6a25.6 25.6 0 0 0 0 51.2h322.2016l-109.8752 109.8752a25.6 25.6 0 0 0 36.2496 36.1984l153.6-153.6a25.6 25.6 0 0 0 0-36.1984z"  /></svg>