<?xml version="1.0" standalone="no"?><!DOCTYPE svg PUBLIC "-//W3C//DTD SVG 1.1//EN" "http://www.w3.org/Graphics/SVG/1.1/DTD/svg11.dtd"><svg class="icon" width="200px" height="200.00px" viewBox="0 0 1024 1024" version="1.1" xmlns="http://www.w3.org/2000/svg"><path fill="#000000" d="M170.666667 42.666667C123.306667 42.666667 85.333333 80.64 85.333333 128L85.333333 298.666667C85.333333 346.026667 123.306667 384 170.666667 384L42.666667 384 42.666667 469.333333 554.666667 469.333333 554.666667 384 426.666667 384C474.026667 384 512 346.026667 512 298.666667L512 128C512 80.64 474.026667 42.666667 426.666667 42.666667L170.666667 42.666667M170.666667 128 426.666667 128 426.666667 298.666667 170.666667 298.666667 170.666667 128M597.333333 554.666667C549.973333 554.666667 512 592.64 512 640L512 810.666667C512 858.026667 549.973333 896 597.333333 896L469.333333 896 469.333333 981.333333 981.333333 981.333333 981.333333 896 853.333333 896C900.693333 896 938.666667 858.026667 938.666667 810.666667L938.666667 640C938.666667 592.64 900.693333 554.666667 853.333333 554.666667L597.333333 554.666667M165.546667 574.293333 104.96 634.88 195.84 725.333333 104.96 815.786667 165.546667 876.373333 256 785.493333 346.453333 876.373333 407.04 815.786667 316.16 725.333333 407.04 634.88 346.453333 574.293333 256 665.173333 165.546667 574.293333M597.333333 640 853.333333 640 853.333333 810.666667 597.333333 810.666667 597.333333 640Z" /></svg>