<?xml version="1.0" standalone="no"?><!DOCTYPE svg PUBLIC "-//W3C//DTD SVG 1.1//EN" "http://www.w3.org/Graphics/SVG/1.1/DTD/svg11.dtd"><svg class="icon" width="200px" height="200.00px" viewBox="0 0 1024 1024" version="1.1" xmlns="http://www.w3.org/2000/svg"><path fill="#00ff00" d="M979.5072 873.1136c0 0 0 0 0 0-12.3904 0-24.832-4.9664-37.0688-14.7456l-176.0256-140.8512c-28.2624-22.6304-49.6128-66.9696-49.6128-103.168l0-153.6c0-36.1984 21.2992-80.5376 49.6128-103.168l176.0256-140.8512c12.2368-9.7792 24.6784-14.7456 37.0688-14.7456 22.1696 0 44.4928 16.6912 44.4928 53.9136l0 563.2c0 14.2336-3.2768 26.2144-9.728 35.5328-8.0384 11.6736-20.736 18.3808-34.7648 18.3808zM972.8 258.048l-174.4384 139.52c-15.872 12.6976-30.3616 42.8544-30.3616 63.1808l0 153.6c0 20.3776 14.4896 50.4832 30.3616 63.1808l174.4384 139.52 0-559.0528z"  /><path fill="#00ff00" d="M588.8 870.4l-512 0c-42.3424 0-76.8-34.4576-76.8-76.8l0-512c0-42.3424 34.4576-76.8 76.8-76.8l512 0c42.3424 0 76.8 34.4576 76.8 76.8l0 512c0 42.3424-34.4576 76.8-76.8 76.8zM76.8 256c-14.1312 0-25.6 11.4688-25.6 25.6l0 512c0 14.1312 11.4688 25.6 25.6 25.6l512 0c14.1312 0 25.6-11.4688 25.6-25.6l0-512c0-14.1312-11.4688-25.6-25.6-25.6l-512 0z"  /></svg>