<?xml version="1.0" standalone="no"?><!DOCTYPE svg PUBLIC "-//W3C//DTD SVG 1.1//EN" "http://www.w3.org/Graphics/SVG/1.1/DTD/svg11.dtd"><svg class="icon" width="200px" height="200.00px" viewBox="0 0 1024 1024" version="1.1" xmlns="http://www.w3.org/2000/svg"><path fill="#00ff00" d="M510.182022 958.113407c-246.96665 0-447.847841-200.907753-447.847841-447.830515 0-246.992347 200.881191-447.831538 447.847841-447.831538 246.96972 0 447.851934 200.839191 447.851934 447.831538C958.033956 757.205655 757.151742 958.113407 510.182022 958.113407zM510.182022 93.174076c-230.001585 0-417.155584 187.014324-417.155584 417.107793 0 230.026954 187.153999 417.105746 417.155584 417.105746 230.004655 0 417.12693-187.078793 417.12693-417.105746C927.309976 280.1884 740.186677 93.174076 510.182022 93.174076zM349.813137 801.153586l-47.957163 0c-26.449456 0-47.957163-21.50785-47.957163-47.885614L253.89881 647.270846l201.481896-201.440895c-1.16764-8.349155-1.803139-16.898879-1.803139-25.448602 0-99.784634 81.287612-181.069939 181.109082-181.069939 99.822493 0 181.077358 81.285305 181.077358 181.069939 0 99.852172-81.254865 181.068915-181.077358 181.068915-17.966923 0-35.634005-2.536776-52.698335-7.746428l-41.078217 41.076534-57.945041 0 0 66.591651-66.626103 0 0 66.521043-66.525815 0L349.813137 801.153586zM283.218758 659.425677l0 93.842295c0 10.215666 8.349497 18.566868 18.636193 18.566868l18.603446 0 0-33.261545 66.557539 0 0-66.591651 66.560609 0L453.576544 605.391017l75.210971 0 45.485778-45.416376 8.749626 3.13848c16.564936 6.011924 33.931154 9.017374 51.662707 9.017374 83.693503 0 151.75434-67.992557 151.75434-151.748123 0-83.621513-68.060837-151.681608-151.75434-151.681608-83.690433 0-151.72057 68.060095-151.72057 151.681608 0 9.417487 0.868823 18.768459 2.50618 27.78481l1.435757 7.679913L283.218758 659.425677zM667.917832 444.426998c-31.56108 0-57.244048-25.647123-57.244048-57.240679 0-31.592532 25.682968-57.30617 57.244048-57.30617 31.59178 0 57.275771 25.714661 57.275771 57.30617C725.193604 418.778852 699.509612 444.426998 667.917832 444.426998zM667.917832 344.574826c-23.477653 0-42.581516 19.167548-42.581516 42.611493 0 23.51046 19.103863 42.612517 42.581516 42.612517 23.476629 0 42.579469-19.102057 42.579469-42.612517C710.498325 363.743398 691.395485 344.574826 667.917832 344.574826z"  /></svg>