<?xml version="1.0" standalone="no"?><!DOCTYPE svg PUBLIC "-//W3C//DTD SVG 1.1//EN" "http://www.w3.org/Graphics/SVG/1.1/DTD/svg11.dtd"><svg class="icon" width="200px" height="200.00px" viewBox="0 0 1024 1024" version="1.1" xmlns="http://www.w3.org/2000/svg"><path fill="#00ff00" d="M384 409.6V640c0 25.6 17.6 43.2 43.2 43.2s43.2-17.6 43.2-43.2V84.8h128V640c0 25.6 17.6 43.2 43.2 43.2s43.2-17.6 43.2-43.2V84.8H896c25.6 0 43.2-17.6 43.2-43.2S921.6 0 896 0H384c-115.2 0-204.8 89.6-204.8 204.8S273.6 409.6 384 409.6z m0-324.8v238.4c-68.8 0-120-56-120-120s51.2-118.4 120-118.4zM780.8 704c-17.6-12.8-46.4-12.8-59.2 8-17.6 12.8-12.8 43.2 4.8 56l51.2 43.2H128c-25.6 0-43.2 17.6-43.2 43.2C84.8 878.4 102.4 896 128 896h665.6l-68.8 51.2c-17.6 12.8-20.8 43.2-8 59.2 8 8 20.8 17.6 33.6 17.6 8 0 17.6-4.8 25.6-8l128-102.4c17.6-12.8 25.6-33.6 25.6-56 0-20.8-8-43.2-25.6-56L780.8 704z" /></svg>