<?xml version="1.0" standalone="no"?><!DOCTYPE svg PUBLIC "-//W3C//DTD SVG 1.1//EN" "http://www.w3.org/Graphics/SVG/1.1/DTD/svg11.dtd"><svg t="1684200700553" class="icon" viewBox="0 0 1024 1024" version="1.1" xmlns="http://www.w3.org/2000/svg" p-id="2399" xmlns:xlink="http://www.w3.org/1999/xlink" width="200" height="200"><path fill="#00ff00" d="M128 298.666667h768a42.666667 42.666667 0 0 0 0-85.333334H128a42.666667 42.666667 0 0 0 0 85.333334z m256 341.333333H128a42.666667 42.666667 0 0 0 0 85.333333h256a42.666667 42.666667 0 0 0 0-85.333333z m405.333333-213.333333H128a42.666667 42.666667 0 0 0 0 85.333333h661.333333a64 64 0 0 1 0 128h-131.84l12.8-12.373333a42.666667 42.666667 0 0 0-60.586666-60.586667l-85.333334 85.333333a42.666667 42.666667 0 0 0-8.96 14.08 42.666667 42.666667 0 0 0 0 32.426667 42.666667 42.666667 0 0 0 8.96 14.08l85.333334 85.333333a42.666667 42.666667 0 0 0 60.586666 0 42.666667 42.666667 0 0 0 0-60.586666l-12.8-12.373334h131.84a149.333333 149.333333 0 0 0 0-298.666666z" p-id="2400"></path></svg>