<?xml version="1.0" standalone="no"?><!DOCTYPE svg PUBLIC "-//W3C//DTD SVG 1.1//EN" "http://www.w3.org/Graphics/SVG/1.1/DTD/svg11.dtd"><svg class="icon" width="200px" height="200.00px" viewBox="0 0 1024 1024" version="1.1" xmlns="http://www.w3.org/2000/svg"><path fill="#ff0000" d="M874.496 240.085333A96 96 0 0 1 938.666667 330.666667v426.666666A181.333333 181.333333 0 0 1 757.333333 938.666667h-426.666666a96 96 0 0 1-90.581334-64.170667l89.472 0.170667H757.333333a117.333333 117.333333 0 0 0 117.333334-117.333334v-426.666666l-0.170667-2.176V240.085333zM735.829333 85.333333a96 96 0 0 1 96 96v554.538667a96 96 0 0 1-96 96H181.333333A96 96 0 0 1 85.333333 735.872V181.333333A96 96 0 0 1 181.333333 85.333333h554.538667z m0 64H181.333333a32 32 0 0 0-32 32v554.538667c0 17.664 14.336 32 32 32h554.538667a32 32 0 0 0 32-32V181.333333a32 32 0 0 0-32-32z m-327.04 335.274667L574.72 318.72a32 32 0 0 1 48.341333 41.642667l-3.114666 3.584-192 192a32 32 0 0 1-45.056 0.170666L379.733333 552.533333l-64-85.333333a32 32 0 0 1 48.085334-41.984l3.114666 3.584 41.856 55.808L574.72 318.72 408.746667 484.608z"  /></svg>