<?xml version="1.0" standalone="no"?><!DOCTYPE svg PUBLIC "-//W3C//DTD SVG 1.1//EN" "http://www.w3.org/Graphics/SVG/1.1/DTD/svg11.dtd"><svg class="icon" width="200px" height="200.00px" viewBox="0 0 1024 1024" version="1.1" xmlns="http://www.w3.org/2000/svg"><path fill="#FF0000" d="M963.523765 683.791059L963.764706 963.764706l-280.033882-0.240941 0.060235-60.235294 177.091765 0.180705L512 554.646588 163.117176 903.529412l177.091765-0.180706 0.060235 60.235294L60.235294 963.764706l0.240941-280.033882 60.235294 0.060235-0.180705 177.031529L469.413647 512 120.530824 163.117176l0.180705 177.03153-60.235294 0.060235L60.235294 60.235294l280.033882 0.240941-0.060235 60.235294-177.091765-0.180705L512 469.413647l348.882824-348.882823-177.091765 0.180705-0.060235-60.235294L963.764706 60.235294l-0.240941 280.033882-60.235294-0.060235 0.180705-177.031529L554.586353 512l348.882823 348.882824-0.180705-177.03153 60.235294-0.060235z" /></svg>