<?xml version="1.0" standalone="no"?><!DOCTYPE svg PUBLIC "-//W3C//DTD SVG 1.1//EN" "http://www.w3.org/Graphics/SVG/1.1/DTD/svg11.dtd"><svg class="icon" width="200px" height="200.00px" viewBox="0 0 1024 1024" version="1.1" xmlns="http://www.w3.org/2000/svg"><path fill="#FF0000" d="M789.333 64A170.667 170.667 0 0 1 960 234.667v311.466a8.533 8.533 0 0 1-8.533 8.534h-46.934a8.533 8.533 0 0 1-8.533-8.534V234.667a106.667 106.667 0 0 0-102.037-106.56l-4.63-0.107H234.667a106.667 106.667 0 0 0-106.56 102.037l-0.107 4.63v554.666a106.667 106.667 0 0 0 102.037 106.56l4.63 0.107h311.466c4.694 0 8.534 3.84 8.534 8.533v46.934a8.533 8.533 0 0 1-8.534 8.533H234.667A170.667 170.667 0 0 1 64 789.333V234.667A170.667 170.667 0 0 1 234.667 64h554.666z m85.334 554.667A85.333 85.333 0 0 1 960 704v170.667A85.333 85.333 0 0 1 874.667 960H704a85.333 85.333 0 0 1-85.333-85.333V704A85.333 85.333 0 0 1 704 618.667h170.667z m0 64H704a21.333 21.333 0 0 0-21.184 18.837l-0.15 2.496v170.667a21.333 21.333 0 0 0 18.838 21.184L704 896h170.667a21.333 21.333 0 0 0 21.184-18.837l0.149-2.496V704a21.333 21.333 0 0 0-18.837-21.184l-2.496-0.15zM460.8 192c4.693 0 8.533 3.84 8.533 8.533v46.934A8.533 8.533 0 0 1 460.8 256H301.27l229.162 229.184-45.248 45.248L256 301.269V460.8a8.533 8.533 0 0 1-8.533 8.533h-46.934A8.533 8.533 0 0 1 192 460.8V256a64 64 0 0 1 60.245-63.893L256 192h204.8z" /></svg>