<?xml version="1.0" standalone="no"?><!DOCTYPE svg PUBLIC "-//W3C//DTD SVG 1.1//EN" "http://www.w3.org/Graphics/SVG/1.1/DTD/svg11.dtd"><svg class="icon" width="200px" height="200.00px" viewBox="0 0 1024 1024" version="1.1" xmlns="http://www.w3.org/2000/svg"><path fill="#00ff00" d="M128 420.8v200.8h148.8l175.2 140V284l-169.6 136H128z m132-64L464 192.8c13.6-11.2 33.6-8.8 44.8 4.8 4.8 5.6 7.2 12.8 7.2 20v610.4c0 17.6-14.4 32-32 32-7.2 0-14.4-2.4-20-7.2L254.4 685.6H96c-17.6 0-32-14.4-32-32V388.8c0-17.6 14.4-32 32-32h164zM670.4 720c-12.8 12-32.8 12-45.6-0.8-12-12.8-12-32 0.8-44.8 41.6-40 64.8-96 64-153.6 0-53.6-20-104.8-56-144.8-12-12.8-11.2-32.8 1.6-45.6 12.8-12 32.8-11.2 45.6 1.6l0.8 0.8C728 384 754.4 451.2 754.4 520c0 76-30.4 148-84 200z m152.8 139.2c-12 12.8-32.8 13.6-45.6 0.8s-13.6-32.8-0.8-45.6l0.8-0.8c76.8-78.4 119.2-184 119.2-292.8 0-108.8-41.6-211.2-114.4-288-12-12.8-11.2-33.6 1.6-45.6 12.8-12 32.8-11.2 44.8 1.6C912 278.4 960 396 960 520.8c0 128-49.6 248-136.8 338.4z" /></svg>