<?xml version="1.0" standalone="no"?><!DOCTYPE svg PUBLIC "-//W3C//DTD SVG 1.1//EN" "http://www.w3.org/Graphics/SVG/1.1/DTD/svg11.dtd"><svg class="icon" width="200px" height="200.00px" viewBox="0 0 1024 1024" version="1.1" xmlns="http://www.w3.org/2000/svg"><path fill="#00ff00" d="M495.168 168.768l-245.952 196.064-190.368 0 0 151.744-0.128 0.096 0.128 0.096 0 150.176 191.36 0 244.992 192.256 0-192.256 0.064 0 0-302.112-0.064 0 0-196.064 0 0zM461.664 633.408l-0.064 0 0 156.8-199.808-156.8-169.376 0 0-234.976 168.544 0 200.672-159.968 0 126.4 0.064 33.568 0 234.976 0 0z"  /><path fill="#00ff00" d="M573.632 343.328c36.512 48.672 55.84 106.656 55.84 167.712 0 62.336-20.064 121.312-57.984 170.56l26.624 20.48c42.496-55.168 64.928-121.216 64.928-191.04 0-68.384-21.632-133.344-62.56-187.84l-26.848 20.16z"  /><path fill="#00ff00" d="M708.864 221.664l-25.888 21.376c63.072 76.384 97.824 173.12 97.824 272.384 0 98.112-32.288 190.368-93.344 266.848l26.272 20.96c65.824-82.496 100.64-181.984 100.64-287.808 0-107.072-37.472-211.392-105.504-293.76z"  /><path fill="#00ff00" d="M813.344 112.672l-25.184 22.176c92.576 105.12 143.552 240.32 143.552 380.704 0 137.536-49.216 270.656-138.528 374.88l25.472 21.824c94.592-110.272 146.624-251.168 146.624-396.704 0-148.544-53.952-291.616-151.936-402.88z"  /></svg>