<?xml version="1.0" standalone="no"?><!DOCTYPE svg PUBLIC "-//W3C//DTD SVG 1.1//EN" "http://www.w3.org/Graphics/SVG/1.1/DTD/svg11.dtd"><svg class="icon" width="200px" height="200.00px" viewBox="0 0 1024 1024" version="1.1" xmlns="http://www.w3.org/2000/svg"><path fill="#00ff00" d="M923.838278 335.906399c-22.549575-53.405327-54.812373-99.333356-95.912443-140.52143-41.101093-41.188074-88.953961-73.52148-142.251841-96.116081-55.190997-23.393803-113.801882-35.250852-174.209694-35.250852-60.419068 0-119.023814 11.857049-174.212764 35.250852-53.296857 22.587438-101.158934 54.92903-142.249795 96.108918-41.10007 41.188074-73.371054 87.123266-95.91449 140.529617C75.748706 391.20996 63.915193 449.950805 63.915193 510.49574c0 60.546981 11.833513 119.269407 35.172057 174.583201 22.544459 53.404304 54.81442 101.380992 95.91449 142.568043 41.09086 41.169655 88.952938 73.520457 142.249795 96.107895 55.18895 23.401989 113.801882 35.259038 174.212764 35.259038 60.407812 0 119.019721-11.857049 174.209694-35.259038 53.29788-22.587438 101.150748-54.93824 142.251841-96.107895 41.099047-41.187051 73.361845-89.164762 95.912443-142.568043 23.333428-55.299467 35.175127-114.035196 35.175127-174.583201C959.013405 449.950805 947.171706 391.20996 923.838278 335.906399zM511.464299 926.086993c-228.67005 0-414.696884-186.447413-414.696884-415.591253 0-229.15919 186.026834-413.558967 414.696884-413.558967 228.650607 0 414.693814 184.398754 414.693814 413.558967C926.158113 739.63958 740.115929 926.086993 511.464299 926.086993zM515.553431 382.417713c-26.730805 0-48.391127 20.225647-48.391127 45.159526l0 286.172695c0 24.951275 21.660322 45.177945 48.391127 45.177945 26.722618 0 48.390104-20.227694 48.390104-45.177945L563.943534 427.577239C563.943534 402.64336 542.276049 382.417713 515.553431 382.417713zM515.553431 239.398392c-26.730805 0-48.391127 20.225647-48.391127 45.159526 0 24.943089 21.660322 45.169759 48.391127 45.169759 26.722618 0 48.390104-20.225647 48.390104-45.169759C563.943534 259.624039 542.276049 239.398392 515.553431 239.398392z" /></svg>