<?xml version="1.0" standalone="no"?><!DOCTYPE svg PUBLIC "-//W3C//DTD SVG 1.1//EN" "http://www.w3.org/Graphics/SVG/1.1/DTD/svg11.dtd"><svg class="icon" width="200px" height="162.93px" viewBox="0 0 1257 1024" version="1.1" xmlns="http://www.w3.org/2000/svg"><path fill="#00ff00" d="M512 1024c-11.264 0-23.552-4.096-31.744-13.312L13.312 543.744a45.12 45.12 0 0 1 0-63.488L480.256 13.312a45.12 45.12 0 0 1 63.488 0c18.432 17.408 18.432 46.08 0 64.512L109.568 512l434.176 434.176c18.432 18.432 18.432 47.104 0 64.512-8.192 9.216-20.48 13.312-31.744 13.312z m700.416-466.944H109.568A45.44 45.44 0 0 1 64.512 512c0-25.6 20.48-45.056 45.056-45.056h1102.848A44.8 44.8 0 0 1 1257.472 512a45.44 45.44 0 0 1-45.056 45.056z" /></svg>