<?xml version="1.0" standalone="no"?><!DOCTYPE svg PUBLIC "-//W3C//DTD SVG 1.1//EN" "http://www.w3.org/Graphics/SVG/1.1/DTD/svg11.dtd"><svg class="icon" width="200px" height="200.00px" viewBox="0 0 1024 1024" version="1.1" xmlns="http://www.w3.org/2000/svg"><path fill="#00ff00" d="M912 848.554667c26.496 0 48-21.504 48-48V224a48 48 0 0 0-76.714667-38.485333l0.128-0.085334-355.413333 263.296V224a48 48 0 0 0-76.714667-38.485333l0.128-0.085334-389.12 288.256a47.914667 47.914667 0 0 0-0.128 77.056l0.128 0.085334 389.12 288.256a48 48 0 0 0 76.544-38.570667v-224.682667l355.456 263.296c7.850667 5.888 17.792 9.472 28.544 9.472z m-448-79.829334L117.76 512.256l346.24-256.469333zM896 255.786667v512.938666l-346.24-256.469333z" /></svg>