<?xml version="1.0" standalone="no"?><!DOCTYPE svg PUBLIC "-//W3C//DTD SVG 1.1//EN" "http://www.w3.org/Graphics/SVG/1.1/DTD/svg11.dtd"><svg class="icon" width="200px" height="200.00px" viewBox="0 0 1024 1024" version="1.1" xmlns="http://www.w3.org/2000/svg"><path fill="#000000" d="M576 203.5v617.1L286.5 663.7c-9.4-5.1-19.8-7.7-30.5-7.7H80c-8.8 0-16-7.2-16-16V384c0-8.8 7.2-16 16-16h176c10.6 0 21.1-2.7 30.5-7.7L576 203.5M239.8 304H64c-35.3 0-64 28.7-64 64v288c0 35.3 28.7 64 64 64h175.8c10.6 0 21.1 2.7 30.5 7.7l322.5 174.7c21.3 11.5 47.2-3.9 47.2-28.1V149.7c0-24.2-25.9-39.7-47.2-28.1L270.3 296.3c-9.4 5-19.9 7.7-30.5 7.7zM864 512c0 92.2-48.8 173-121.9 218.1-2.7 1.6-6.1-0.3-6.1-3.4v-69.8c0-1.1 0.5-2.2 1.3-2.9 2.2-2 4.3-4.1 6.5-6.2C780 611.5 800 563.3 800 512c0-51.3-20-99.5-56.2-135.8-2.1-2.1-4.3-4.2-6.5-6.2-0.8-0.8-1.3-1.8-1.3-2.9v-69.8c0-3.1 3.4-5.1 6.1-3.4C815.2 339 864 419.8 864 512z" /></svg>