<?xml version="1.0" standalone="no"?><!DOCTYPE svg PUBLIC "-//W3C//DTD SVG 1.1//EN" "http://www.w3.org/Graphics/SVG/1.1/DTD/svg11.dtd"><svg class="icon" width="200px" height="200.00px" viewBox="0 0 1024 1024" version="1.1" xmlns="http://www.w3.org/2000/svg"><path fill="#000000" d="M719.644444 512c0 29.866667-7.111111 56.888889-19.911111 81.066667l42.666667 42.666666c21.333333-35.555556 34.133333-78.222222 34.133333-123.733333 0-75.377778-34.133333-142.222222-88.177777-186.311111-18.488889-15.644444-45.511111-1.422222-45.511112 21.333333 0 8.533333 2.844444 17.066667 9.955556 21.333334 39.822222 35.555556 66.844444 86.755556 66.844444 143.644444zM861.866667 512c0 68.266667-21.333333 132.266667-58.311111 184.888889l41.244444 41.244444c46.933333-64 73.955556-140.8 73.955556-226.133333 0-159.288889-96.711111-295.822222-236.088889-354.133333-18.488889-8.533333-39.822222 5.688889-39.822223 25.6 0 11.377778 7.111111 21.333333 17.066667 25.6 118.044444 49.777778 201.955556 166.4 201.955556 302.933333zM529.066667 223.288889v199.111111l56.888889 56.888889V153.6c0-25.6-31.288889-38.4-48.355556-19.911111L388.266667 283.022222l39.822222 39.822222 100.977778-99.555555zM833.422222 847.644444c11.377778-11.377778 11.377778-28.444444 0-39.822222L807.822222 782.222222 768 742.4 585.955556 560.355556l-56.888889-56.888889-140.8-140.8-39.822223-39.822223-118.044444-118.044444c-11.377778-11.377778-28.444444-11.377778-39.822222 0-11.377778 11.377778-11.377778 28.444444 0 39.822222l106.666666 106.666667h-135.111111c-31.288889 0-56.888889 25.6-56.888889 56.888889v206.222222c0 31.288889 25.6 56.888889 56.888889 56.888889h156.444445l217.6 217.6c18.488889 18.488889 48.355556 5.688889 48.355555-19.911111V640l137.955556 137.955556c-19.911111 14.222222-41.244444 25.6-64 35.555555-9.955556 4.266667-17.066667 14.222222-17.066667 25.6 0 19.911111 21.333333 34.133333 39.822222 25.6 29.866667-12.8 56.888889-28.444444 82.488889-46.933333l28.444445 28.444444c12.8 12.8 29.866667 12.8 41.244444 1.422222z m-304.355555-46.933333L359.822222 631.466667c-11.377778-11.377778-25.6-17.066667-39.822222-17.066667h-156.444444V409.6h173.511111c4.266667 0 7.111111-1.422222 9.955555-4.266667l1.422222-1.422222L529.066667 583.111111v217.6z" /></svg>