<?xml version="1.0" standalone="no"?><!DOCTYPE svg PUBLIC "-//W3C//DTD SVG 1.1//EN" "http://www.w3.org/Graphics/SVG/1.1/DTD/svg11.dtd"><svg class="icon" width="200px" height="200.00px" viewBox="0 0 1024 1024" version="1.1" xmlns="http://www.w3.org/2000/svg"><path fill="#000000" d="M924.254763 337.40452c-22.556739-53.296857-54.830793-101.162004-95.943142-142.268214-41.11849-41.104163-88.988754-73.374124-142.31017-95.925747-55.199183-23.347754-113.834628-35.180244-174.264952-35.180244-60.438511 0-119.064746 11.83249-174.272116 35.180244-53.3163 22.542412-101.193727 54.82056-142.298913 95.91756-41.114396 41.10621-73.396637 88.979544-95.947236 142.276401-23.348778 55.19509-35.184337 113.817232-35.184337 174.241416 0 60.418045 11.835559 119.034047 35.184337 174.23323 22.550599 53.298903 54.832839 101.178377 95.947236 142.283564 41.105187 41.09086 88.983637 73.374124 142.298913 95.91756 55.208393 23.356964 113.842815 35.189454 174.272116 35.189453 60.430324 0 119.065769-11.83249 174.264952-35.189453 53.321416-22.543436 101.192703-54.826699 142.31017-95.91756 41.11235-41.105187 73.386404-88.98466 95.943142-142.283564 23.338544-55.186903 35.184337-113.806999 35.184337-174.23323 0-60.424184-11.845793-119.046327-35.184337-174.241416zM511.736499 926.408311c-228.747821 0-414.840146-186.075953-414.840147-414.762375 0-228.700749 186.092325-414.761352 414.840147-414.761352 228.750891 0 414.843216 186.060603 414.843216 414.761352 0 228.686423-186.092325 414.762375-414.843216 414.762375z m29.177529-414.407288l164.441213-159.285796c7.980765-7.737218 7.980765-20.289092 0-28.027333-7.979742-7.731078-20.917402-7.731078-28.904307 0l-164.455539 159.303192-164.455539-159.303192c-7.980765-7.737218-20.925588-7.737218-28.906354 0-7.978718 7.738241-7.978718 20.290115 0 28.027333l164.44326 159.285796-164.44326 159.28375c-7.978718 7.742335-7.978718 20.289092 0 28.02631 7.980765 7.738241 20.919449 7.738241 28.906354 0l164.455539-159.302169 164.455539 159.302169c7.986905 7.738241 20.924565 7.738241 28.91147 0 7.986905-7.737218 7.979742-20.289092 0-28.02631L540.914028 512.001023z" /></svg>