<?xml version="1.0" standalone="no"?><!DOCTYPE svg PUBLIC "-//W3C//DTD SVG 1.1//EN" "http://www.w3.org/Graphics/SVG/1.1/DTD/svg11.dtd"><svg class="icon" width="200px" height="200.00px" viewBox="0 0 1024 1024" version="1.1" xmlns="http://www.w3.org/2000/svg"><path fill="#000000" d="M877.078261 283.826087L631.095652 35.617391c-8.904348-8.904348-20.034783-13.356522-32.278261-13.356521H178.086957c-24.486957 0-44.521739 20.034783-44.52174 44.521739v890.434782c0 24.486957 20.034783 44.521739 44.52174 44.521739h667.826086c24.486957 0 44.521739-20.034783 44.52174-44.521739V314.991304c0-12.243478-4.452174-23.373913-13.356522-31.165217zM801.391304 333.913043H578.782609V111.304348h2.226087L801.391304 333.913043zM222.608696 912.695652V111.304348h267.130434v266.017391c0 24.486957 18.921739 45.634783 43.408696 45.634783H801.391304v489.73913H222.608696z" /></svg>