<?xml version="1.0" standalone="no"?><!DOCTYPE svg PUBLIC "-//W3C//DTD SVG 1.1//EN" "http://www.w3.org/Graphics/SVG/1.1/DTD/svg11.dtd"><svg class="icon" width="200px" height="200.00px" viewBox="0 0 1024 1024" version="1.1" xmlns="http://www.w3.org/2000/svg"><path fill="#000000" d="M716.544 960H153.376C139.616 960 128 944.352 128 925.792V98.208C128 79.648 139.616 64 153.376 64h717.248c13.76 0 25.376 15.648 25.376 34.208v352.96a32 32 0 0 0 64 0V98.208C960 44.032 919.904 0 870.624 0H153.376C104.096 0 64 44.032 64 98.208v827.584C64 979.968 104.096 1024 153.376 1024h563.168a32 32 0 0 0 0-64zM1014.624 969.376l-163.808-163.808a231.488 231.488 0 0 0 47.456-140.384c0-128.576-104.576-233.184-233.12-233.184-128.576 0-233.152 104.608-233.152 233.184 0 128.544 104.608 233.12 233.152 233.12a231.776 231.776 0 0 0 140.416-47.456l163.808 163.808a32 32 0 0 0 45.248-45.28zM496 665.184a169.376 169.376 0 0 1 169.152-169.184 169.344 169.344 0 0 1 169.12 169.184 169.312 169.312 0 0 1-169.12 169.12 169.376 169.376 0 0 1-169.152-169.12zM800 256a32 32 0 0 0-32-32H256a32 32 0 0 0 0 64h512a32 32 0 0 0 32-32zM416 512a32 32 0 0 0-32-32H256a32 32 0 0 0 0 64h128a32 32 0 0 0 32-32zM256 736a32 32 0 0 0 0 64h96a32 32 0 0 0 0-64H256z" /></svg>