<?xml version="1.0" standalone="no"?><!DOCTYPE svg PUBLIC "-//W3C//DTD SVG 1.1//EN" "http://www.w3.org/Graphics/SVG/1.1/DTD/svg11.dtd"><svg class="icon" width="200px" height="200.00px" viewBox="0 0 1024 1024" version="1.1" xmlns="http://www.w3.org/2000/svg"><path fill="#000000" d="M786.112 608.352c-70.56 0-131.392 41.888-159.424 102.016l-71.296-144.576 240.864-454.784c8.288-15.616 2.304-34.976-13.312-43.264-15.584-8.288-34.976-2.336-43.264 13.312l-219.264 413.984L316.704 81.856C308.864 65.984 289.664 59.488 273.856 67.296 257.984 75.136 251.488 94.304 259.296 110.144l224.224 454.592-80.224 151.456c-26.656-63.328-89.344-107.872-162.24-107.872-97.056 0-176.032 78.976-176.032 176 0 97.056 78.976 176.032 176.032 176.032 71.456 0 132.96-42.88 160.512-104.224 0.032-0.096 0.096-0.128 0.16-0.224l116.736-220.416 100.896 204.544c23.328 69.824 89.216 120.32 166.784 120.32 97.056 0 176.032-78.976 176.032-176.032C962.144 687.328 883.2 608.352 786.112 608.352zM241.056 896.384c-61.792 0-112.032-50.24-112.032-112.032 0-61.76 50.24-112 112.032-112 61.728 0 111.968 50.24 111.968 112C353.024 846.112 302.784 896.384 241.056 896.384zM786.112 896.384c-37.504 0-70.56-18.688-90.912-47.136l-15.2-30.752c-3.488-10.848-5.888-22.176-5.888-34.144 0-61.76 50.208-112 111.968-112 61.792 0 112.032 50.24 112.032 112C898.144 846.112 847.904 896.384 786.112 896.384z"  /></svg>