<?xml version="1.0" standalone="no"?><!DOCTYPE svg PUBLIC "-//W3C//DTD SVG 1.1//EN" "http://www.w3.org/Graphics/SVG/1.1/DTD/svg11.dtd"><svg class="icon" width="200px" height="200.00px" viewBox="0 0 1024 1024" version="1.1" xmlns="http://www.w3.org/2000/svg"><path fill="#000000" d="M256 192a42.666667 42.666667 0 0 1 85.333333 0v256.042667c-0.128 147.754667 56.32 213.290667 181.205334 213.290666 124.928 0 181.461333-65.578667 181.461333-213.333333v-256a42.666667 42.666667 0 1 1 85.333333 0v256c0 193.706667-93.013333 298.666667-266.794666 298.666667S255.829333 641.664 256 448v-256zM298.666667 896a42.666667 42.666667 0 1 1 0-85.333333h448a42.666667 42.666667 0 1 1 0 85.333333H298.666667z"  /></svg>