<?xml version="1.0" standalone="no"?><!DOCTYPE svg PUBLIC "-//W3C//DTD SVG 1.1//EN" "http://www.w3.org/Graphics/SVG/1.1/DTD/svg11.dtd"><svg class="icon" width="200px" height="200.00px" viewBox="0 0 1024 1024" version="1.1" xmlns="http://www.w3.org/2000/svg"><path fill="#000000" d="M904.533333 853.333333h-512c-10.24 0-17.066667-6.826667-17.066666-17.066666s6.826667-17.066667 17.066666-17.066667h512c10.24 0 17.066667 6.826667 17.066667 17.066667s-6.826667 17.066667-17.066667 17.066666z"  /><path fill="#000000" d="M324.266667 921.6C276.48 921.6 238.933333 884.053333 238.933333 836.266667S276.48 750.933333 324.266667 750.933333s85.333333 37.546667 85.333333 85.333334S372.053333 921.6 324.266667 921.6z m0-136.533333c-27.306667 0-51.2 23.893333-51.2 51.2S296.96 887.466667 324.266667 887.466667s51.2-23.893333 51.2-51.2-23.893333-51.2-51.2-51.2z"  /><path fill="#000000" d="M238.933333 853.333333H85.333333c-10.24 0-17.066667-6.826667-17.066666-17.066666s6.826667-17.066667 17.066666-17.066667H238.933333c10.24 0 17.066667 6.826667 17.066667 17.066667s-6.826667 17.066667-17.066667 17.066666zM324.266667 853.333333c-10.24 0-17.066667-6.826667-17.066667-17.066666s6.826667-17.066667 17.066667-17.066667 17.066667 6.826667 17.066666 17.066667-6.826667 17.066667-17.066666 17.066666zM392.533333 580.266667c-3.413333 0-6.826667 0-10.24-3.413334-6.826667-3.413333-6.826667-10.24-6.826666-13.653333v-375.466667c0-6.826667 3.413333-13.653333 10.24-13.653333 6.826667-3.413333 13.653333-3.413333 17.066666 0l307.2 204.8c3.413333 3.413333 6.826667 10.24 6.826667 13.653333 0 6.826667-3.413333 10.24-10.24 13.653334l-307.2 170.666666c0 3.413333-3.413333 3.413333-6.826667 3.413334zM409.6 218.453333v314.026667l256-143.36-256-170.666667z"  /><path fill="#000000" d="M904.533333 1024h-785.066666C54.613333 1024 0 969.386667 0 904.533333v-785.066666C0 54.613333 54.613333 0 119.466667 0h785.066666C969.386667 0 1024 54.613333 1024 119.466667v785.066666c0 64.853333-54.613333 119.466667-119.466667 119.466667zM119.466667 34.133333C71.68 34.133333 34.133333 71.68 34.133333 119.466667v785.066666C34.133333 952.32 71.68 989.866667 119.466667 989.866667h785.066666c47.786667 0 85.333333-37.546667 85.333334-85.333334v-785.066666C989.866667 71.68 952.32 34.133333 904.533333 34.133333h-785.066666z"  /></svg>