<?xml version="1.0" standalone="no"?><!DOCTYPE svg PUBLIC "-//W3C//DTD SVG 1.1//EN" "http://www.w3.org/Graphics/SVG/1.1/DTD/svg11.dtd"><svg class="icon" width="200px" height="200.00px" viewBox="0 0 1024 1024" version="1.1" xmlns="http://www.w3.org/2000/svg"><path fill="#000000" d="M853.333333 352h-110.933333c-17.066667 0-32 14.933333-32 32s14.933333 32 32 32H853.333333c12.8 0 21.333333 8.533333 21.333334 19.2v430.933333c0 10.666667-10.666667 19.2-21.333334 19.2H170.666667c-12.8 0-21.333333-8.533333-21.333334-19.2V435.2c0-10.666667 10.666667-19.2 21.333334-19.2h132.266666c17.066667 0 32-14.933333 32-32s-14.933333-32-32-32H170.666667c-46.933333 0-85.333333 36.266667-85.333334 83.2v430.933333c0 44.8 38.4 83.2 85.333334 83.2h682.666666c46.933333 0 85.333333-36.266667 85.333334-83.2V435.2c0-46.933333-38.4-83.2-85.333334-83.2zM369.066667 270.933333l110.933333-110.933333V640c0 17.066667 14.933333 32 32 32s32-14.933333 32-32V160l110.933333 110.933333c6.4 6.4 14.933333 8.533333 23.466667 8.533334s17.066667-2.133333 23.466667-8.533334c12.8-12.8 12.8-32 0-44.8l-166.4-166.4c-12.8-12.8-32-12.8-44.8 0l-166.4 166.4c-12.8 12.8-12.8 32 0 44.8 10.666667 12.8 32 12.8 44.8 0z" /></svg>