<?xml version="1.0" standalone="no"?><!DOCTYPE svg PUBLIC "-//W3C//DTD SVG 1.1//EN" "http://www.w3.org/Graphics/SVG/1.1/DTD/svg11.dtd"><svg class="icon" width="200px" height="200.00px" viewBox="0 0 1024 1024" version="1.1" xmlns="http://www.w3.org/2000/svg"><path d="M176 64a47.744 47.744 0 0 0-48 48v864c0 26.688 21.312 48 48 48h672c26.752 0 48-21.248 48-48V384l-264-56L576 64z" fill="#000000" /><path d="M576 64v266.688c0 29.312 24 53.312 53.312 53.312H896z" fill="#FAFAFA" /><path d="M256 448v64h64V448H256z m128 0v64h64V448H384z m128 0v64h64V448H512z m128 0v64h64V448h-64zM320 576v64h64V576H320z m128 0v64h64V576H448z m128 0v64h64V576H576z m128 0v64h64V576h-64z m-448 128v64h64v-64H256z m128 0v64h64v-64H384z m128 0v64h64v-64H512z m128 0v64h64v-64h-64z m-320 128v64h64v-64H320z m128 0v64h64v-64H448z m128 0v64h64v-64H576z m128 0v64h64v-64h-64z"  fill="#ffffff" /></svg>