<?xml version="1.0" standalone="no"?><!DOCTYPE svg PUBLIC "-//W3C//DTD SVG 1.1//EN" "http://www.w3.org/Graphics/SVG/1.1/DTD/svg11.dtd"><svg class="icon" width="200px" height="200.00px" viewBox="0 0 1024 1024" version="1.1" xmlns="http://www.w3.org/2000/svg"><path fill="#000000" d="M368.3 656.2a40.3 40.3 0 0 0 21.7-6.5l160.2-104.2c24.2-15.7 24.2-51.3 0-67L390 374.3a40.3 40.3 0 0 0-21.7-6.5c-20.8 0-40.1 16.6-40.1 40.1v208.2c0 23.5 19.3 40.1 40.1 40.1z m23.9-204.1l92.2 59.9-92.2 59.9z m527.7-152.6a39.4 39.4 0 0 0-24.8 8.9L809 377.8V232a40 40 0 0 0-40-40H105a40 40 0 0 0-40 40v560a40 40 0 0 0 40 40h664a40 40 0 0 0 40-40V646.2l86.1 69.4a39.4 39.4 0 0 0 24.8 8.9c20.6 0 40.1-16.3 40.1-40.1V339.6c0-23.8-19.5-40.1-40.1-40.1zM737 760H137V264h600z m151.2-142.3L809 553.9v-83.8l79.2-63.8z" /></svg>